<svg xmlns="http://www.w3.org/2000/svg" xmlns:xlink="http://www.w3.org/1999/xlink" width="375" height="112" viewBox="0 0 375 112">
  <defs>
    <clipPath id="clip-vs_overlay">
      <rect width="375" height="112"/>
    </clipPath>
  </defs>
  <g id="vs_overlay" data-name="vs overlay" clip-path="url(#clip-vs_overlay)">
    <rect id="Rectangle_183" data-name="Rectangle 183" width="375" height="6" transform="translate(0 51)" fill="#fff"/>
    <path id="Path_65" data-name="Path 65" d="M0,0,96,10.719V96L0,85.469Z" transform="translate(140 8)" fill="#fff"/>
    <path id="Path_68" data-name="Path 68" d="M35.616,16.191,24.552,47H18.837L7.966,16.191h5.586l7.605,23.375a14.42,14.42,0,0,1,.559,2.6H21.8a13.688,13.688,0,0,1,.623-2.643L30.2,16.191Zm2.148,29.584V40.512a8.13,8.13,0,0,0,1.687,1.16,13.032,13.032,0,0,0,2.073.87,16.339,16.339,0,0,0,2.191.548,11.683,11.683,0,0,0,2.02.193,8.619,8.619,0,0,0,4.8-1.074,3.534,3.534,0,0,0,1.579-3.115,3.4,3.4,0,0,0-.526-1.9,5.521,5.521,0,0,0-1.472-1.472,15.463,15.463,0,0,0-2.224-1.278q-1.278-.612-2.739-1.278-1.568-.838-2.922-1.7a12.575,12.575,0,0,1-2.353-1.9,7.955,7.955,0,0,1-1.568-2.353,7.662,7.662,0,0,1-.569-3.072,7.091,7.091,0,0,1,.978-3.771A8.256,8.256,0,0,1,41.3,17.728a11.819,11.819,0,0,1,3.642-1.547,17.293,17.293,0,0,1,4.168-.5q4.834,0,7.047,1.1V21.82a11.255,11.255,0,0,0-6.746-1.891,12.088,12.088,0,0,0-2.267.215,6.738,6.738,0,0,0-2.02.709,4.372,4.372,0,0,0-1.45,1.268,3.107,3.107,0,0,0-.559,1.869,3.535,3.535,0,0,0,.43,1.783A4.6,4.6,0,0,0,44.8,27.148a12.841,12.841,0,0,0,2.02,1.214q1.192.591,2.761,1.278,1.611.838,3.04,1.762a14.331,14.331,0,0,1,2.514,2.041,8.969,8.969,0,0,1,1.719,2.481,7.287,7.287,0,0,1,.634,3.1A7.286,7.286,0,0,1,54,45.6a11.34,11.34,0,0,1-3.685,1.461,20.774,20.774,0,0,1-4.4.451,18.754,18.754,0,0,1-1.9-.118q-1.128-.118-2.31-.344a21.244,21.244,0,0,1-2.234-.548A7.074,7.074,0,0,1,37.765,45.775Z" transform="translate(154 27)"/>
  </g>
</svg>
