<svg xmlns="http://www.w3.org/2000/svg" xmlns:xlink="http://www.w3.org/1999/xlink" width="22" height="22" viewBox="0 0 22 22">
  <defs>
    <linearGradient id="linear-gradient" x1="0.5" x2="0.5" y2="1" gradientUnits="objectBoundingBox">
      <stop offset="0" stop-color="#327f06"/>
      <stop offset="1" stop-color="#00c928"/>
    </linearGradient>
    <clipPath id="clip-cashsymbol">
      <rect width="22" height="22"/>
    </clipPath>
  </defs>
  <g id="cashsymbol" clip-path="url(#clip-cashsymbol)">
    <g id="Group_7" data-name="Group 7" transform="translate(-289 -30)">
      <circle id="Ellipse_6" data-name="Ellipse 6" cx="11" cy="11" r="11" transform="translate(289 30)" fill="url(#linear-gradient)"/>
      <g id="monetization_on-24px" transform="translate(289.7 30.7)">
        <path id="Path_22" data-name="Path 22" d="M0,0H20.728V20.728H0Z" fill="none"/>
        <path id="Path_23" data-name="Path 23" d="M10.637,2a8.637,8.637,0,1,0,8.637,8.637A8.64,8.64,0,0,0,10.637,2Zm1.218,13.9v1.65H9.549V15.879a3.213,3.213,0,0,1-2.824-2.936H8.417c.086.907.708,1.615,2.289,1.615,1.693,0,2.073-.846,2.073-1.373,0-.717-.38-1.391-2.306-1.848-2.142-.518-3.61-1.4-3.61-3.17A2.994,2.994,0,0,1,9.549,5.394V3.727h2.306V5.412a3.053,3.053,0,0,1,2.461,2.928H12.623c-.043-.959-.553-1.615-1.917-1.615-1.3,0-2.073.587-2.073,1.416,0,.725.561,1.2,2.306,1.65s3.61,1.2,3.61,3.377c-.009,1.581-1.192,2.444-2.695,2.729Z" transform="translate(-0.273 -0.273)" fill="#fff"/>
      </g>
    </g>
  </g>
</svg>
