<svg xmlns="http://www.w3.org/2000/svg" xmlns:xlink="http://www.w3.org/1999/xlink" width="108" height="182" viewBox="0 0 108 182">
  <defs>
    <clipPath id="clip-DamageSelect">
      <rect width="108" height="182"/>
    </clipPath>
  </defs>
  <g id="DamageSelect" clip-path="url(#clip-DamageSelect)">
    <g id="Rectangle_124" data-name="Rectangle 124" fill="none" stroke="#ff2d2d" stroke-width="5">
      <rect width="108" height="180" rx="10" stroke="none"/>
      <rect x="2.5" y="2.5" width="103" height="175" rx="7.5" fill="none"/>
    </g>
    <path id="Rectangle_125" data-name="Rectangle 125" d="M0,0H108a0,0,0,0,1,0,0V24a8,8,0,0,1-8,8H8a8,8,0,0,1-8-8V0A0,0,0,0,1,0,0Z" transform="translate(0 150)" fill="#ff2d2d"/>
    <path id="Path_38" data-name="Path 38" d="M32.4,14.59a5.943,5.943,0,0,1-2.755.574,4.5,4.5,0,0,1-3.418-1.347,4.907,4.907,0,0,1-1.285-3.534,5.146,5.146,0,0,1,1.446-3.8,4.946,4.946,0,0,1,3.654-1.449,5.988,5.988,0,0,1,2.358.4V7.05a4.208,4.208,0,0,0-2.187-.588A3.433,3.433,0,0,0,27.633,7.48a3.742,3.742,0,0,0-.988,2.721,3.568,3.568,0,0,0,.923,2.581,3.212,3.212,0,0,0,2.427.96,4.345,4.345,0,0,0,2.406-.656Zm4.785.574a3.47,3.47,0,0,1-2.587-.981,3.544,3.544,0,0,1-.967-2.6A3.687,3.687,0,0,1,34.64,8.827a3.708,3.708,0,0,1,2.717-.991,3.358,3.358,0,0,1,2.557.964,3.723,3.723,0,0,1,.916,2.673,3.669,3.669,0,0,1-.988,2.683A3.548,3.548,0,0,1,37.186,15.164ZM37.261,9.1a1.81,1.81,0,0,0-1.47.649,2.719,2.719,0,0,0-.54,1.791,2.561,2.561,0,0,0,.547,1.733,1.837,1.837,0,0,0,1.463.632,1.743,1.743,0,0,0,1.439-.622,2.754,2.754,0,0,0,.5-1.771,2.8,2.8,0,0,0-.5-1.784A1.734,1.734,0,0,0,37.261,9.1ZM48.677,15H47.091V11.056q0-1.962-1.388-1.962a1.515,1.515,0,0,0-1.2.543,2.016,2.016,0,0,0-.472,1.371V15H42.443V8h1.593V9.162h.027a2.5,2.5,0,0,1,2.27-1.326,2.114,2.114,0,0,1,1.743.742,3.33,3.33,0,0,1,.6,2.143ZM54.57,5.929a1.442,1.442,0,0,0-.731-.185q-1.155,0-1.155,1.306V8H54.31V9.244H52.69V15H51.1V9.244h-1.2V8h1.2V6.865a2.209,2.209,0,0,1,.725-1.747,2.639,2.639,0,0,1,1.812-.639,2.69,2.69,0,0,1,.93.13Zm1.668.6a.953.953,0,0,1-.667-.253.832.832,0,0,1-.277-.643.854.854,0,0,1,.277-.649.939.939,0,0,1,.667-.26.969.969,0,0,1,.684.26.849.849,0,0,1,.28.649.837.837,0,0,1-.28.632A.962.962,0,0,1,56.238,6.53ZM57.024,15H55.438V8h1.586Zm6.132-5.489a1.315,1.315,0,0,0-.827-.226,1.416,1.416,0,0,0-1.176.636,2.843,2.843,0,0,0-.472,1.729V15H59.1V8h1.586V9.442h.027a2.439,2.439,0,0,1,.714-1.152A1.612,1.612,0,0,1,62.5,7.877a1.337,1.337,0,0,1,.656.13ZM74.743,15H73.157V11.186a3.091,3.091,0,0,0-.311-1.593A1.144,1.144,0,0,0,71.8,9.1a1.265,1.265,0,0,0-1.056.622,2.538,2.538,0,0,0-.434,1.49V15H68.713V11.056q0-1.955-1.381-1.955a1.246,1.246,0,0,0-1.056.588,2.592,2.592,0,0,0-.414,1.524V15H64.277V8h1.586V9.107h.027A2.425,2.425,0,0,1,68.1,7.836a2.082,2.082,0,0,1,1.268.4,1.992,1.992,0,0,1,.742,1.049,2.5,2.5,0,0,1,2.324-1.449q2.311,0,2.311,2.851Z" transform="translate(4 156)" fill="#fff"/>
  </g>
</svg>
