<svg xmlns="http://www.w3.org/2000/svg" xmlns:xlink="http://www.w3.org/1999/xlink" width="9" height="11.7" viewBox="0 0 9 11.7">
  <defs>
    <clipPath id="clip-damageiconM">
      <rect width="9" height="11.7"/>
    </clipPath>
  </defs>
  <g id="damageiconM" clip-path="url(#clip-damageiconM)">
    <g id="local_fire_department-24px" transform="translate(-1.5)">
      <g id="Group_1" data-name="Group 1" transform="translate(0 0)">
        <rect id="Rectangle_19" data-name="Rectangle 19" width="12" height="12" transform="translate(0)" fill="none"/>
      </g>
      <g id="Group_2" data-name="Group 2" transform="translate(1.859 0.573)">
        <path id="Path_1" data-name="Path 1" d="M11.955,7.074c-.807-2.1-3.679-2.21-2.986-5.257a.259.259,0,0,0-.385-.283A4.794,4.794,0,0,0,6.5,7.726a.256.256,0,0,1-.385.3,2.559,2.559,0,0,1-.946-2.441A.257.257,0,0,0,4.7,5.414a4.832,4.832,0,0,0-.7,2.7,4.138,4.138,0,0,0,3.5,3.875,4.408,4.408,0,0,0,3.571-.961A3.553,3.553,0,0,0,11.955,7.074ZM7.186,9.659A1.588,1.588,0,0,0,8.409,8.471c.17-.735-.493-1.454-.046-2.616.17.961,1.68,1.562,1.68,2.611A1.638,1.638,0,0,1,7.186,9.659Z" transform="translate(-4 -1.496)" fill="#fff"/>
      </g>
    </g>
    <rect id="Rectangle_149" data-name="Rectangle 149" width="4" height="5" transform="translate(3.5 5)" fill="#fff"/>
  </g>
</svg>
