<svg xmlns="http://www.w3.org/2000/svg" xmlns:xlink="http://www.w3.org/1999/xlink" width="104" height="171" viewBox="0 0 104 171">
  <defs>
    <clipPath id="clip-eliminated">
      <rect width="104" height="171"/>
    </clipPath>
  </defs>
  <g id="eliminated" clip-path="url(#clip-eliminated)">
    <rect id="Rectangle_148" data-name="Rectangle 148" width="104" height="171" fill="rgba(0,0,0,0.6)"/>
    <path id="Path_49" data-name="Path 49" d="M16.606,18H10.3V6.1h6.043V7.358H11.692v3.959h4.3v1.253h-4.3v4.167h4.914Zm3.47,0H18.715V5.416h1.361ZM23.529,7.342a.863.863,0,0,1-.623-.249.841.841,0,0,1-.257-.631.872.872,0,0,1,.88-.888.879.879,0,0,1,.635.253.887.887,0,0,1,0,1.258A.872.872,0,0,1,23.529,7.342ZM24.193,18H22.832V9.5h1.361Zm14.825,0H37.657V13.119a3.682,3.682,0,0,0-.436-2.042,1.653,1.653,0,0,0-1.465-.631,1.814,1.814,0,0,0-1.482.8,3.049,3.049,0,0,0-.61,1.909V18H32.3V12.953q0-2.507-1.934-2.507a1.792,1.792,0,0,0-1.478.751,3.105,3.105,0,0,0-.581,1.955V18H26.949V9.5h1.361v1.345h.033A2.888,2.888,0,0,1,30.983,9.3a2.455,2.455,0,0,1,2.407,1.76A3.033,3.033,0,0,1,36.213,9.3q2.806,0,2.806,3.461ZM42.289,7.342a.863.863,0,0,1-.623-.249.84.84,0,0,1-.257-.631.872.872,0,0,1,.88-.888.879.879,0,0,1,.635.253.887.887,0,0,1,0,1.258A.872.872,0,0,1,42.289,7.342ZM42.953,18H41.592V9.5h1.361Zm9.812,0H51.4V13.152q0-2.706-1.976-2.706a2.143,2.143,0,0,0-1.689.768,2.846,2.846,0,0,0-.668,1.938V18H45.709V9.5H47.07v1.411H47.1A3.068,3.068,0,0,1,49.893,9.3a2.6,2.6,0,0,1,2.133.9,4.012,4.012,0,0,1,.739,2.6Zm8.649,0H60.053V16.672H60.02A2.85,2.85,0,0,1,57.4,18.2a2.794,2.794,0,0,1-1.988-.672,2.329,2.329,0,0,1-.718-1.785q0-2.382,2.806-2.772l2.548-.357q0-2.167-1.751-2.167a4.184,4.184,0,0,0-2.772,1.046V10.1a5.268,5.268,0,0,1,2.889-.8q3,0,3,3.171Zm-1.361-4.3L58,13.982a3.329,3.329,0,0,0-1.428.469,1.353,1.353,0,0,0-.481,1.191,1.3,1.3,0,0,0,.444,1.017,1.716,1.716,0,0,0,1.183.394,2.185,2.185,0,0,0,1.673-.71,2.536,2.536,0,0,0,.66-1.8Zm7.869,4.217a2.625,2.625,0,0,1-1.27.266q-2.233,0-2.233-2.49v-5.03H62.958V9.5h1.461V7.425l1.361-.44V9.5h2.142v1.162H65.78v4.79a1.986,1.986,0,0,0,.291,1.22,1.159,1.159,0,0,0,.963.365,1.431,1.431,0,0,0,.888-.282Zm8.649-3.827h-6a3.179,3.179,0,0,0,.764,2.191,2.633,2.633,0,0,0,2.009.772,4.176,4.176,0,0,0,2.64-.946v1.278a4.933,4.933,0,0,1-2.963.813,3.593,3.593,0,0,1-2.831-1.158,4.74,4.74,0,0,1-1.029-3.258,4.648,4.648,0,0,1,1.125-3.233A3.606,3.606,0,0,1,73.077,9.3a3.2,3.2,0,0,1,2.582,1.079,4.5,4.5,0,0,1,.913,3Zm-1.395-1.154a2.77,2.77,0,0,0-.569-1.834,1.937,1.937,0,0,0-1.556-.656,2.2,2.2,0,0,0-1.635.689,3.127,3.127,0,0,0-.83,1.8ZM85.885,18H84.523V16.556H84.49A3.143,3.143,0,0,1,81.568,18.2a3.175,3.175,0,0,1-2.561-1.141,4.682,4.682,0,0,1-.959-3.109,5.094,5.094,0,0,1,1.063-3.378A3.5,3.5,0,0,1,81.942,9.3a2.725,2.725,0,0,1,2.548,1.378h.033V5.416h1.361Zm-1.361-3.843V12.9a2.432,2.432,0,0,0-.681-1.743,2.283,2.283,0,0,0-1.727-.714,2.351,2.351,0,0,0-1.959.913,4,4,0,0,0-.714,2.523,3.6,3.6,0,0,0,.685,2.32,2.238,2.238,0,0,0,1.839.851,2.325,2.325,0,0,0,1.847-.822A3.062,3.062,0,0,0,84.523,14.157Z" transform="translate(5 130)" fill="#fff"/>
    <text id="_" data-name="+" transform="translate(64.753 79.104) rotate(45)" fill="#fff" font-size="46" font-family="SegoeUI-Semibold, Segoe UI" font-weight="600"><tspan x="0" y="50">+</tspan></text>
  </g>
</svg>
