<svg xmlns="http://www.w3.org/2000/svg" xmlns:xlink="http://www.w3.org/1999/xlink" width="305" height="49" viewBox="0 0 305 49">
  <defs>
    <linearGradient id="linear-gradient" x1="0.5" x2="0.5" y2="1" gradientUnits="objectBoundingBox">
      <stop offset="0" stop-color="#d80202"/>
      <stop offset="1" stop-color="#770707"/>
    </linearGradient>
    <clipPath id="clip-friendmatch">
      <rect width="305" height="49"/>
    </clipPath>
  </defs>
  <g id="friendmatch" clip-path="url(#clip-friendmatch)">
    <rect width="305" height="49" fill="#fff"/>
    <rect id="Rectangle_133" data-name="Rectangle 133" width="303" height="49" rx="5" transform="translate(1)" fill="url(#linear-gradient)"/>
    <path id="Path_46" data-name="Path 46" d="M39.229,15.583V13.788a2.771,2.771,0,0,0,.575.4,4.443,4.443,0,0,0,.707.3,5.57,5.57,0,0,0,.747.187,3.983,3.983,0,0,0,.688.066,2.938,2.938,0,0,0,1.637-.366,1.2,1.2,0,0,0,.538-1.062,1.158,1.158,0,0,0-.179-.648,1.882,1.882,0,0,0-.5-.5,5.272,5.272,0,0,0-.758-.436q-.436-.209-.934-.436-.535-.286-1-.579a4.287,4.287,0,0,1-.8-.648,2.712,2.712,0,0,1-.535-.8,2.612,2.612,0,0,1-.194-1.047,2.417,2.417,0,0,1,.333-1.285,2.814,2.814,0,0,1,.879-.9,4.029,4.029,0,0,1,1.241-.527A5.9,5.9,0,0,1,43.1,5.321a5.735,5.735,0,0,1,2.4.374V7.416a3.837,3.837,0,0,0-2.3-.645,4.121,4.121,0,0,0-.773.073,2.3,2.3,0,0,0-.688.242,1.49,1.49,0,0,0-.494.432,1.059,1.059,0,0,0-.19.637,1.205,1.205,0,0,0,.146.608,1.568,1.568,0,0,0,.428.469,4.378,4.378,0,0,0,.688.414q.406.2.941.436.549.286,1.036.6a4.885,4.885,0,0,1,.857.7,3.058,3.058,0,0,1,.586.846,2.484,2.484,0,0,1,.216,1.058,2.484,2.484,0,0,1-1.19,2.241,3.866,3.866,0,0,1-1.256.5,7.082,7.082,0,0,1-1.5.154,6.394,6.394,0,0,1-.648-.04q-.385-.04-.787-.117a7.242,7.242,0,0,1-.762-.187A2.412,2.412,0,0,1,39.229,15.583Zm11.982.337a2.945,2.945,0,0,1-1.311.249q-2.183,0-2.183-2.095V9.833H46.466V8.5h1.252V6.764l1.7-.483V8.5h1.794V9.833H49.417v3.75a1.478,1.478,0,0,0,.242.952,1,1,0,0,0,.806.286,1.168,1.168,0,0,0,.747-.249ZM58.434,16H56.786V14.828h-.029a2.481,2.481,0,0,1-2.278,1.348,2.4,2.4,0,0,1-1.732-.6,2.1,2.1,0,0,1-.626-1.589q0-2.124,2.446-2.476l2.227-.315q0-1.6-1.523-1.6a3.619,3.619,0,0,0-2.417.923V9.027a5.271,5.271,0,0,1,2.739-.7q2.842,0,2.842,2.8Zm-1.641-3.684-1.575.22a2.5,2.5,0,0,0-1.1.355,1.038,1.038,0,0,0-.37.912,1,1,0,0,0,.341.78,1.319,1.319,0,0,0,.912.3,1.683,1.683,0,0,0,1.285-.546,1.935,1.935,0,0,0,.509-1.373Zm8.064-2.2a1.409,1.409,0,0,0-.886-.242,1.517,1.517,0,0,0-1.26.681,3.046,3.046,0,0,0-.505,1.853V16h-1.7V8.5h1.7v1.545h.029A2.613,2.613,0,0,1,63,8.811a1.727,1.727,0,0,1,1.154-.443,1.432,1.432,0,0,1,.7.139Zm5.588,5.8a2.945,2.945,0,0,1-1.311.249q-2.183,0-2.183-2.095V9.833H65.7V8.5h1.252V6.764l1.7-.483V8.5h1.794V9.833H68.651v3.75a1.478,1.478,0,0,0,.242.952,1,1,0,0,0,.806.286,1.168,1.168,0,0,0,.747-.249ZM81.893,6.977H77.967v3.157h3.618v1.472H77.967V16H76.224V5.5h5.669Zm6.028,3.142a1.409,1.409,0,0,0-.886-.242,1.517,1.517,0,0,0-1.26.681,3.046,3.046,0,0,0-.505,1.853V16h-1.7V8.5h1.7v1.545H85.3a2.613,2.613,0,0,1,.765-1.234,1.727,1.727,0,0,1,1.154-.443,1.432,1.432,0,0,1,.7.139Zm2.058-3.193a1.022,1.022,0,0,1-.714-.271.892.892,0,0,1-.3-.688.915.915,0,0,1,.3-.7,1.007,1.007,0,0,1,.714-.278,1.038,1.038,0,0,1,.732.278.909.909,0,0,1,.3.7.9.9,0,0,1-.3.677A1.03,1.03,0,0,1,89.979,6.925ZM90.821,16h-1.7V8.5h1.7Zm8.569-3.289H94.278a2.161,2.161,0,0,0,.641,1.6,2.384,2.384,0,0,0,1.681.564,3.707,3.707,0,0,0,2.2-.718v1.37a5.037,5.037,0,0,1-2.71.645,3.355,3.355,0,0,1-2.6-1.022,4.087,4.087,0,0,1-.941-2.875,4,4,0,0,1,1.036-2.853,3.39,3.39,0,0,1,2.574-1.1,2.956,2.956,0,0,1,2.38.989,4.105,4.105,0,0,1,.842,2.747Zm-1.641-1.2a2.19,2.19,0,0,0-.432-1.425,1.444,1.444,0,0,0-1.172-.509,1.649,1.649,0,0,0-1.241.535,2.443,2.443,0,0,0-.626,1.4ZM107.689,16h-1.7V11.774q0-2.1-1.487-2.1a1.623,1.623,0,0,0-1.282.582,2.16,2.16,0,0,0-.505,1.469V16h-1.707V8.5h1.707V9.745h.029a2.673,2.673,0,0,1,2.432-1.421,2.265,2.265,0,0,1,1.868.795,3.568,3.568,0,0,1,.645,2.3Zm8.892,0h-1.7V14.726h-.029a2.933,2.933,0,0,1-4.742.443,4.181,4.181,0,0,1-.831-2.743,4.555,4.555,0,0,1,.919-2.981,3.008,3.008,0,0,1,2.45-1.121,2.346,2.346,0,0,1,2.2,1.216h.029V4.9h1.7ZM114.9,12.572v-.981a1.912,1.912,0,0,0-.52-1.355,1.735,1.735,0,0,0-1.326-.557,1.785,1.785,0,0,0-1.5.71,3.166,3.166,0,0,0-.546,1.97,2.837,2.837,0,0,0,.524,1.805,1.7,1.7,0,0,0,1.41.663,1.763,1.763,0,0,0,1.414-.641A2.414,2.414,0,0,0,114.9,12.572ZM134.393,16h-1.729V9.2q0-.835.1-2.043h-.029a7.057,7.057,0,0,1-.286.989L129.317,16h-1.2l-3.142-7.793A7.34,7.34,0,0,1,124.7,7.16h-.029q.059.63.059,2.058V16h-1.611V5.5h2.454l2.761,6.995a10.344,10.344,0,0,1,.41,1.2h.037q.271-.828.439-1.23L132.027,5.5h2.366Zm8.152,0H140.9V14.828h-.029a2.481,2.481,0,0,1-2.278,1.348,2.4,2.4,0,0,1-1.732-.6,2.1,2.1,0,0,1-.626-1.589q0-2.124,2.446-2.476L140.9,11.2q0-1.6-1.523-1.6a3.619,3.619,0,0,0-2.417.923V9.027a5.271,5.271,0,0,1,2.739-.7q2.842,0,2.842,2.8ZM140.9,12.316l-1.575.22a2.5,2.5,0,0,0-1.1.355,1.038,1.038,0,0,0-.37.912,1,1,0,0,0,.341.78,1.319,1.319,0,0,0,.912.3,1.683,1.683,0,0,0,1.285-.546,1.935,1.935,0,0,0,.509-1.373Zm7.668,3.6a2.945,2.945,0,0,1-1.311.249q-2.183,0-2.183-2.095V9.833h-1.252V8.5h1.252V6.764l1.7-.483V8.5h1.794V9.833h-1.794v3.75a1.478,1.478,0,0,0,.242.952,1,1,0,0,0,.806.286,1.168,1.168,0,0,0,.747-.249Zm6.7-.264a4.19,4.19,0,0,1-2.131.52,3.609,3.609,0,0,1-2.7-1.044,3.7,3.7,0,0,1-1.025-2.706,4.069,4.069,0,0,1,1.1-2.977,3.941,3.941,0,0,1,2.948-1.124,4.3,4.3,0,0,1,1.809.359v1.582a2.74,2.74,0,0,0-1.67-.586,2.321,2.321,0,0,0-1.765.729,2.665,2.665,0,0,0-.688,1.908,2.541,2.541,0,0,0,.648,1.838,2.3,2.3,0,0,0,1.74.674,2.718,2.718,0,0,0,1.729-.652Zm8.35.344h-1.7V11.9q0-2.227-1.487-2.227a1.555,1.555,0,0,0-1.26.645,2.565,2.565,0,0,0-.513,1.648V16h-1.707V4.9h1.707V9.745h.029a2.683,2.683,0,0,1,2.432-1.421q2.5,0,2.5,3.054Z" transform="translate(51 15)" fill="#fff"/>
  </g>
</svg>
