<svg xmlns="http://www.w3.org/2000/svg" xmlns:xlink="http://www.w3.org/1999/xlink" width="74" height="74" viewBox="0 0 74 74">
  <defs>
    <clipPath id="clip-lock">
      <rect width="74" height="74"/>
    </clipPath>
  </defs>
  <g id="lock" clip-path="url(#clip-lock)">
    <rect id="Rectangle_213" data-name="Rectangle 213" width="74" height="74" rx="37" opacity="0.58"/>
    <g id="lock-24px_2_" data-name="lock-24px (2)" transform="translate(25 25)">
      <path id="Path_63" data-name="Path 63" d="M0,0H24V24H0Z" fill="none"/>
      <path id="Path_64" data-name="Path 64" d="M18,8H17V6A5,5,0,0,0,7,6V8H6a2.006,2.006,0,0,0-2,2V20a2.006,2.006,0,0,0,2,2H18a2.006,2.006,0,0,0,2-2V10A2.006,2.006,0,0,0,18,8Zm-6,9a2,2,0,1,1,2-2A2.006,2.006,0,0,1,12,17Zm3.1-9H8.9V6a3.1,3.1,0,0,1,6.2,0Z" fill="#fff"/>
    </g>
  </g>
</svg>
