<svg xmlns="http://www.w3.org/2000/svg" xmlns:xlink="http://www.w3.org/1999/xlink" width="375" height="812" viewBox="0 0 375 812">
  <defs>
    <clipPath id="clip-online">
      <rect width="375" height="812"/>
    </clipPath>
  </defs>
  <g id="online" clip-path="url(#clip-online)">
    <path id="Path_42" data-name="Path 42" d="M102.792,18.2a5.354,5.354,0,0,1-4.121-1.668,6.128,6.128,0,0,1-1.548-4.341A6.493,6.493,0,0,1,98.7,7.607a5.541,5.541,0,0,1,4.283-1.71,5.234,5.234,0,0,1,4.038,1.66,6.149,6.149,0,0,1,1.531,4.341,6.513,6.513,0,0,1-1.569,4.607A5.44,5.44,0,0,1,102.792,18.2Zm.091-10.567a3.312,3.312,0,0,0-2.66,1.22A4.827,4.827,0,0,0,99.2,12.065a4.874,4.874,0,0,0,1,3.2,3.212,3.212,0,0,0,2.606,1.212,3.365,3.365,0,0,0,2.7-1.154,4.814,4.814,0,0,0,.988-3.229,5.047,5.047,0,0,0-.959-3.3A3.241,3.241,0,0,0,102.883,7.632ZM118.09,18h-1.926V13.21q0-2.382-1.685-2.382a1.84,1.84,0,0,0-1.453.66,2.448,2.448,0,0,0-.573,1.664V18H110.52V9.5h1.934v1.411h.033a3.029,3.029,0,0,1,2.756-1.61,2.567,2.567,0,0,1,2.117.9,4.044,4.044,0,0,1,.73,2.6Zm4.283,0h-1.934V5.416h1.934Zm3.478-10.285a1.158,1.158,0,0,1-.809-.307,1.011,1.011,0,0,1-.336-.78,1.036,1.036,0,0,1,.336-.789,1.141,1.141,0,0,1,.809-.315,1.176,1.176,0,0,1,.83.315,1.03,1.03,0,0,1,.34.789,1.016,1.016,0,0,1-.34.768A1.168,1.168,0,0,1,125.851,7.715ZM126.806,18H124.88V9.5h1.926Zm10.085,0h-1.926V13.21q0-2.382-1.685-2.382a1.84,1.84,0,0,0-1.453.66,2.448,2.448,0,0,0-.573,1.664V18h-1.934V9.5h1.934v1.411h.033a3.029,3.029,0,0,1,2.756-1.61,2.567,2.567,0,0,1,2.117.9,4.044,4.044,0,0,1,.73,2.6Zm9.546-3.727h-5.794a2.449,2.449,0,0,0,.726,1.818,2.7,2.7,0,0,0,1.905.639,4.2,4.2,0,0,0,2.5-.813v1.552a5.708,5.708,0,0,1-3.071.73,3.8,3.8,0,0,1-2.943-1.158,4.632,4.632,0,0,1-1.067-3.258,4.529,4.529,0,0,1,1.175-3.233A3.842,3.842,0,0,1,142.785,9.3a3.35,3.35,0,0,1,2.7,1.121,4.653,4.653,0,0,1,.955,3.113Zm-1.859-1.361a2.481,2.481,0,0,0-.49-1.615,1.636,1.636,0,0,0-1.328-.577,1.869,1.869,0,0,0-1.407.606,2.768,2.768,0,0,0-.71,1.585Zm10.55.772V18h-1.967V6.1h3.611a4.783,4.783,0,0,1,3.179.955,3.329,3.329,0,0,1,1.129,2.689A3.716,3.716,0,0,1,159.9,12.58a4.476,4.476,0,0,1-3.187,1.1Zm0-5.96v4.35h1.278a2.827,2.827,0,0,0,1.934-.589A2.1,2.1,0,0,0,159,9.824q0-2.1-2.44-2.1ZM164.815,18h-1.934V5.416h1.934Zm9.031,0h-1.868V16.672h-.033a2.812,2.812,0,0,1-2.582,1.527,2.719,2.719,0,0,1-1.963-.681,2.381,2.381,0,0,1-.71-1.8q0-2.407,2.772-2.806l2.523-.357q0-1.818-1.727-1.818a4.1,4.1,0,0,0-2.739,1.046V10.1a5.974,5.974,0,0,1,3.1-.8q3.221,0,3.221,3.171Zm-1.859-4.175-1.785.249a2.829,2.829,0,0,0-1.249.4,1.176,1.176,0,0,0-.419,1.033,1.131,1.131,0,0,0,.386.884,1.5,1.5,0,0,0,1.033.344,1.907,1.907,0,0,0,1.457-.618,2.193,2.193,0,0,0,.577-1.556ZM183.558,9.5l-3.835,9.861Q178.528,22,176.37,22a4.021,4.021,0,0,1-1.013-.108v-1.6a2.693,2.693,0,0,0,.83.149,1.713,1.713,0,0,0,1.61-1.062l.573-1.395L174.992,9.5h2.133l2.025,6.176q.033.116.149.614h.042q.041-.191.149-.6L181.616,9.5Z" transform="translate(48 349)"/>
    <path id="Path_45" data-name="Path 45" d="M40.719,7.358H37.282V18H35.887V7.358H32.459V6.1h8.259ZM49.459,18H48.1V13.1q0-2.656-1.976-2.656a2.154,2.154,0,0,0-1.677.768,2.861,2.861,0,0,0-.681,1.971V18H42.4V5.416h1.361v5.5H43.8A3.092,3.092,0,0,1,46.587,9.3q2.872,0,2.872,3.461ZM52.721,7.342a.863.863,0,0,1-.623-.249.84.84,0,0,1-.257-.631.872.872,0,0,1,.88-.888.879.879,0,0,1,.635.253.887.887,0,0,1,0,1.258A.872.872,0,0,1,52.721,7.342ZM53.385,18H52.024V9.5h1.361Zm2.241-.307V16.232a4.029,4.029,0,0,0,2.449.822q1.793,0,1.793-1.2a1.037,1.037,0,0,0-.154-.577,1.53,1.53,0,0,0-.415-.419,3.2,3.2,0,0,0-.614-.328q-.353-.145-.76-.3a9.782,9.782,0,0,1-.992-.452,3,3,0,0,1-.714-.515,1.915,1.915,0,0,1-.432-.652,2.305,2.305,0,0,1-.145-.855,2.031,2.031,0,0,1,.274-1.058,2.429,2.429,0,0,1,.73-.772,3.406,3.406,0,0,1,1.042-.469A4.621,4.621,0,0,1,58.9,9.3a4.877,4.877,0,0,1,1.976.382v1.378a3.85,3.85,0,0,0-2.158-.614,2.523,2.523,0,0,0-.689.087,1.687,1.687,0,0,0-.527.245,1.131,1.131,0,0,0-.34.378,1,1,0,0,0-.12.486,1.165,1.165,0,0,0,.12.556,1.224,1.224,0,0,0,.353.4,2.7,2.7,0,0,0,.564.315q.332.141.755.307a10.513,10.513,0,0,1,1.013.444,3.473,3.473,0,0,1,.764.515,2.011,2.011,0,0,1,.486.66,2.128,2.128,0,0,1,.17.888,2.094,2.094,0,0,1-.278,1.1,2.383,2.383,0,0,1-.743.772,3.4,3.4,0,0,1-1.071.457,5.287,5.287,0,0,1-1.27.149A4.822,4.822,0,0,1,55.627,17.693Zm19.64-.374Q75.266,22,70.784,22a6.018,6.018,0,0,1-2.756-.6V20.042a5.66,5.66,0,0,0,2.739.8q3.138,0,3.138-3.337v-.93h-.033a3.439,3.439,0,0,1-5.474.494,4.529,4.529,0,0,1-.967-3.042,5.292,5.292,0,0,1,1.042-3.445A3.48,3.48,0,0,1,71.323,9.3a2.771,2.771,0,0,1,2.548,1.378h.033V9.5h1.361Zm-1.361-3.163V12.9a2.432,2.432,0,0,0-.685-1.735,2.255,2.255,0,0,0-1.706-.722,2.364,2.364,0,0,0-1.976.917,4.094,4.094,0,0,0-.714,2.569,3.515,3.515,0,0,0,.685,2.27,2.212,2.212,0,0,0,1.814.851,2.369,2.369,0,0,0,1.864-.813A3.032,3.032,0,0,0,73.905,14.157ZM84.107,18H82.745V16.672h-.033A2.85,2.85,0,0,1,80.1,18.2a2.794,2.794,0,0,1-1.988-.672,2.329,2.329,0,0,1-.718-1.785q0-2.382,2.806-2.772l2.548-.357q0-2.167-1.751-2.167a4.184,4.184,0,0,0-2.772,1.046V10.1a5.268,5.268,0,0,1,2.889-.8q3,0,3,3.171Zm-1.361-4.3-2.05.282a3.329,3.329,0,0,0-1.428.469,1.353,1.353,0,0,0-.481,1.191,1.3,1.3,0,0,0,.444,1.017,1.716,1.716,0,0,0,1.183.394,2.185,2.185,0,0,0,1.673-.71,2.536,2.536,0,0,0,.66-1.8Zm16,4.3H97.38V13.119a3.682,3.682,0,0,0-.436-2.042,1.653,1.653,0,0,0-1.465-.631,1.814,1.814,0,0,0-1.482.8,3.049,3.049,0,0,0-.61,1.909V18H92.026V12.953q0-2.507-1.934-2.507a1.792,1.792,0,0,0-1.478.751,3.105,3.105,0,0,0-.581,1.955V18H86.672V9.5h1.361v1.345h.033A2.888,2.888,0,0,1,90.706,9.3a2.455,2.455,0,0,1,2.407,1.76A3.033,3.033,0,0,1,95.935,9.3q2.806,0,2.806,3.461Zm9.4-3.91h-6a3.179,3.179,0,0,0,.764,2.191,2.633,2.633,0,0,0,2.009.772,4.176,4.176,0,0,0,2.64-.946v1.278a4.933,4.933,0,0,1-2.963.813,3.593,3.593,0,0,1-2.831-1.158,4.74,4.74,0,0,1-1.029-3.258,4.648,4.648,0,0,1,1.125-3.233A3.606,3.606,0,0,1,104.651,9.3a3.2,3.2,0,0,1,2.582,1.079,4.5,4.5,0,0,1,.913,3Zm-1.395-1.154a2.77,2.77,0,0,0-.569-1.834,1.937,1.937,0,0,0-1.556-.656,2.2,2.2,0,0,0-1.635.689,3.127,3.127,0,0,0-.83,1.8ZM121.734,18h-1.361V16.655h-.033a2.8,2.8,0,0,1-2.623,1.544q-3.038,0-3.038-3.619V9.5h1.353v4.864q0,2.689,2.059,2.689a2.083,2.083,0,0,0,1.639-.735,2.811,2.811,0,0,0,.643-1.922V9.5h1.361Zm2.233-.307V16.232a4.029,4.029,0,0,0,2.449.822q1.793,0,1.793-1.2a1.037,1.037,0,0,0-.154-.577,1.53,1.53,0,0,0-.415-.419,3.2,3.2,0,0,0-.614-.328q-.353-.145-.76-.3a9.782,9.782,0,0,1-.992-.452,3,3,0,0,1-.714-.515,1.915,1.915,0,0,1-.432-.652,2.305,2.305,0,0,1-.145-.855,2.031,2.031,0,0,1,.274-1.058,2.429,2.429,0,0,1,.73-.772,3.406,3.406,0,0,1,1.042-.469,4.621,4.621,0,0,1,1.208-.158,4.877,4.877,0,0,1,1.976.382v1.378a3.85,3.85,0,0,0-2.158-.614,2.523,2.523,0,0,0-.689.087,1.687,1.687,0,0,0-.527.245,1.131,1.131,0,0,0-.34.378,1,1,0,0,0-.12.486,1.165,1.165,0,0,0,.12.556,1.224,1.224,0,0,0,.353.4,2.7,2.7,0,0,0,.564.315q.332.141.755.307a10.513,10.513,0,0,1,1.013.444,3.473,3.473,0,0,1,.764.515,2.011,2.011,0,0,1,.486.66,2.128,2.128,0,0,1,.17.888,2.094,2.094,0,0,1-.278,1.1,2.383,2.383,0,0,1-.743.772,3.4,3.4,0,0,1-1.071.457,5.287,5.287,0,0,1-1.27.149A4.822,4.822,0,0,1,123.967,17.693Zm14.56-3.6h-6a3.179,3.179,0,0,0,.764,2.191,2.633,2.633,0,0,0,2.009.772,4.176,4.176,0,0,0,2.64-.946v1.278a4.933,4.933,0,0,1-2.963.813,3.593,3.593,0,0,1-2.831-1.158,4.74,4.74,0,0,1-1.029-3.258,4.648,4.648,0,0,1,1.125-3.233A3.606,3.606,0,0,1,135.032,9.3a3.2,3.2,0,0,1,2.582,1.079,4.5,4.5,0,0,1,.913,3Zm-1.395-1.154a2.77,2.77,0,0,0-.569-1.834,1.937,1.937,0,0,0-1.556-.656,2.2,2.2,0,0,0-1.635.689,3.127,3.127,0,0,0-.83,1.8Zm2.938,4.756V16.232a4.029,4.029,0,0,0,2.449.822q1.793,0,1.793-1.2a1.037,1.037,0,0,0-.154-.577,1.53,1.53,0,0,0-.415-.419,3.2,3.2,0,0,0-.614-.328q-.353-.145-.76-.3a9.782,9.782,0,0,1-.992-.452,3,3,0,0,1-.714-.515,1.915,1.915,0,0,1-.432-.652,2.305,2.305,0,0,1-.145-.855,2.031,2.031,0,0,1,.274-1.058,2.429,2.429,0,0,1,.73-.772,3.406,3.406,0,0,1,1.042-.469,4.621,4.621,0,0,1,1.208-.158,4.877,4.877,0,0,1,1.976.382v1.378a3.85,3.85,0,0,0-2.158-.614,2.523,2.523,0,0,0-.689.087,1.687,1.687,0,0,0-.527.245,1.131,1.131,0,0,0-.34.378,1,1,0,0,0-.12.486,1.165,1.165,0,0,0,.12.556,1.224,1.224,0,0,0,.353.4,2.7,2.7,0,0,0,.564.315q.332.141.755.307a10.513,10.513,0,0,1,1.013.444,3.473,3.473,0,0,1,.764.515,2.011,2.011,0,0,1,.486.66,2.128,2.128,0,0,1,.17.888,2.094,2.094,0,0,1-.278,1.1,2.383,2.383,0,0,1-.743.772,3.4,3.4,0,0,1-1.071.457,5.287,5.287,0,0,1-1.27.149A4.822,4.822,0,0,1,140.071,17.693ZM163.163,9.5,160.615,18H159.2l-1.751-6.084a3.965,3.965,0,0,1-.133-.789h-.033a3.722,3.722,0,0,1-.174.772l-1.9,6.1H153.85l-2.573-8.5H152.7l1.76,6.392a3.85,3.85,0,0,1,.116.764h.066a3.572,3.572,0,0,1,.149-.78L156.755,9.5H158l1.76,6.408a4.574,4.574,0,0,1,.125.764h.066a3.532,3.532,0,0,1,.141-.764L161.819,9.5Zm8.409,4.59h-6a3.179,3.179,0,0,0,.764,2.191,2.633,2.633,0,0,0,2.009.772,4.176,4.176,0,0,0,2.64-.946v1.278a4.933,4.933,0,0,1-2.963.813,3.593,3.593,0,0,1-2.831-1.158,4.74,4.74,0,0,1-1.029-3.258,4.648,4.648,0,0,1,1.125-3.233A3.606,3.606,0,0,1,168.077,9.3a3.2,3.2,0,0,1,2.582,1.079,4.5,4.5,0,0,1,.913,3Zm-1.395-1.154a2.77,2.77,0,0,0-.569-1.834,1.937,1.937,0,0,0-1.556-.656,2.2,2.2,0,0,0-1.635.689,3.127,3.127,0,0,0-.83,1.8Zm4.848,3.835h-.033V18h-1.361V5.416h1.361v5.578h.033A3.219,3.219,0,0,1,177.964,9.3a3.115,3.115,0,0,1,2.561,1.141,4.713,4.713,0,0,1,.926,3.059,5.268,5.268,0,0,1-1.038,3.416,3.455,3.455,0,0,1-2.839,1.282A2.8,2.8,0,0,1,175.025,16.771Zm-.033-3.428V14.53a2.527,2.527,0,0,0,.685,1.789,2.443,2.443,0,0,0,3.677-.212,4.341,4.341,0,0,0,.7-2.631,3.427,3.427,0,0,0-.656-2.225,2.17,2.17,0,0,0-1.776-.805,2.412,2.412,0,0,0-1.909.826A3.033,3.033,0,0,0,174.992,13.343Zm17.722-2.465a1.665,1.665,0,0,0-1.029-.274,1.737,1.737,0,0,0-1.457.822,3.8,3.8,0,0,0-.585,2.241V18h-1.361V9.5h1.361v1.751h.033a2.968,2.968,0,0,1,.888-1.4,2.025,2.025,0,0,1,1.336-.5,2.222,2.222,0,0,1,.813.116Zm8.309,3.212h-6a3.179,3.179,0,0,0,.764,2.191,2.633,2.633,0,0,0,2.009.772,4.176,4.176,0,0,0,2.64-.946v1.278a4.933,4.933,0,0,1-2.963.813,3.593,3.593,0,0,1-2.831-1.158,4.74,4.74,0,0,1-1.029-3.258,4.648,4.648,0,0,1,1.125-3.233A3.606,3.606,0,0,1,197.529,9.3a3.2,3.2,0,0,1,2.582,1.079,4.5,4.5,0,0,1,.913,3Zm-1.395-1.154a2.77,2.77,0,0,0-.569-1.834,1.937,1.937,0,0,0-1.556-.656,2.2,2.2,0,0,0-1.635.689,3.127,3.127,0,0,0-.83,1.8ZM209.166,18H207.8V16.672h-.033a2.85,2.85,0,0,1-2.615,1.527,2.794,2.794,0,0,1-1.988-.672,2.329,2.329,0,0,1-.718-1.785q0-2.382,2.806-2.772l2.548-.357q0-2.167-1.751-2.167a4.184,4.184,0,0,0-2.772,1.046V10.1a5.268,5.268,0,0,1,2.889-.8q3,0,3,3.171ZM207.8,13.7l-2.05.282a3.329,3.329,0,0,0-1.428.469,1.353,1.353,0,0,0-.481,1.191,1.3,1.3,0,0,0,.444,1.017,1.716,1.716,0,0,0,1.183.394,2.185,2.185,0,0,0,1.673-.71,2.536,2.536,0,0,0,.66-1.8Zm5.288,4.3h-1.361V5.416h1.361Zm6.7-.083a2.625,2.625,0,0,1-1.27.266q-2.233,0-2.233-2.49v-5.03h-1.461V9.5h1.461V7.425l1.361-.44V9.5h2.142v1.162H217.65v4.79a1.986,1.986,0,0,0,.291,1.22,1.159,1.159,0,0,0,.963.365,1.431,1.431,0,0,0,.888-.282Zm2.515-10.575a.863.863,0,0,1-.623-.249.84.84,0,0,1-.257-.631.872.872,0,0,1,.88-.888.879.879,0,0,1,.635.253.887.887,0,0,1,0,1.258A.872.872,0,0,1,222.306,7.342ZM222.97,18h-1.361V9.5h1.361ZM237.8,18h-1.361V13.119A3.682,3.682,0,0,0,236,11.077a1.653,1.653,0,0,0-1.465-.631,1.814,1.814,0,0,0-1.482.8,3.049,3.049,0,0,0-.61,1.909V18H231.08V12.953q0-2.507-1.934-2.507a1.792,1.792,0,0,0-1.478.751,3.105,3.105,0,0,0-.581,1.955V18h-1.361V9.5h1.361v1.345h.033A2.888,2.888,0,0,1,229.76,9.3a2.455,2.455,0,0,1,2.407,1.76A3.033,3.033,0,0,1,234.99,9.3q2.806,0,2.806,3.461Zm9.4-3.91h-6a3.179,3.179,0,0,0,.764,2.191,2.633,2.633,0,0,0,2.009.772,4.176,4.176,0,0,0,2.64-.946v1.278a4.933,4.933,0,0,1-2.963.813,3.593,3.593,0,0,1-2.831-1.158,4.74,4.74,0,0,1-1.029-3.258,4.648,4.648,0,0,1,1.125-3.233A3.606,3.606,0,0,1,243.706,9.3a3.2,3.2,0,0,1,2.582,1.079,4.5,4.5,0,0,1,.913,3Zm-1.395-1.154a2.77,2.77,0,0,0-.569-1.834,1.937,1.937,0,0,0-1.556-.656,2.2,2.2,0,0,0-1.635.689,3.127,3.127,0,0,0-.83,1.8ZM18.95,39.61a4.423,4.423,0,0,1-2.324.589,3.848,3.848,0,0,1-2.934-1.183,4.287,4.287,0,0,1-1.116-3.067,4.712,4.712,0,0,1,1.2-3.374A4.211,4.211,0,0,1,16.991,31.3a4.472,4.472,0,0,1,1.976.415V33.11a3.461,3.461,0,0,0-2.025-.664,2.737,2.737,0,0,0-2.137.934,3.544,3.544,0,0,0-.834,2.453,3.374,3.374,0,0,0,.784,2.357,2.7,2.7,0,0,0,2.1.863,3.412,3.412,0,0,0,2.092-.739Zm5.611.589a3.943,3.943,0,0,1-3.009-1.191,4.412,4.412,0,0,1-1.125-3.158A4.6,4.6,0,0,1,21.6,32.5a4.208,4.208,0,0,1,3.163-1.2,3.812,3.812,0,0,1,2.968,1.17,4.641,4.641,0,0,1,1.067,3.246,4.566,4.566,0,0,1-1.15,3.258A4.028,4.028,0,0,1,24.561,40.2Zm.1-7.753a2.589,2.589,0,0,0-2.075.892,3.665,3.665,0,0,0-.764,2.461,3.466,3.466,0,0,0,.772,2.382,2.624,2.624,0,0,0,2.067.872,2.489,2.489,0,0,0,2.03-.855,3.71,3.71,0,0,0,.71-2.432,3.774,3.774,0,0,0-.71-2.457A2.478,2.478,0,0,0,24.661,32.446ZM43.039,40H41.677V35.119a3.682,3.682,0,0,0-.436-2.042,1.653,1.653,0,0,0-1.465-.631,1.814,1.814,0,0,0-1.482.8,3.049,3.049,0,0,0-.61,1.909V40H36.323V34.953q0-2.507-1.934-2.507a1.792,1.792,0,0,0-1.478.751,3.105,3.105,0,0,0-.581,1.955V40H30.969V31.5h1.361v1.345h.033A2.888,2.888,0,0,1,35,31.3a2.455,2.455,0,0,1,2.407,1.76,3.033,3.033,0,0,1,2.822-1.76q2.806,0,2.806,3.461Zm14.643,0H56.32V35.119a3.682,3.682,0,0,0-.436-2.042,1.653,1.653,0,0,0-1.465-.631,1.814,1.814,0,0,0-1.482.8,3.049,3.049,0,0,0-.61,1.909V40H50.966V34.953q0-2.507-1.934-2.507a1.792,1.792,0,0,0-1.478.751,3.105,3.105,0,0,0-.581,1.955V40H45.612V31.5h1.361v1.345h.033a2.888,2.888,0,0,1,2.64-1.544,2.455,2.455,0,0,1,2.407,1.76,3.033,3.033,0,0,1,2.822-1.76q2.806,0,2.806,3.461Zm9.446,0H65.766V38.655h-.033A2.8,2.8,0,0,1,63.11,40.2q-3.038,0-3.038-3.619V31.5h1.353v4.864q0,2.689,2.059,2.689a2.083,2.083,0,0,0,1.639-.735,2.811,2.811,0,0,0,.643-1.922V31.5h1.361Zm9.8,0H75.569V35.152q0-2.706-1.976-2.706a2.143,2.143,0,0,0-1.689.768,2.846,2.846,0,0,0-.668,1.938V40H69.875V31.5h1.361v1.411h.033a3.068,3.068,0,0,1,2.789-1.61,2.6,2.6,0,0,1,2.133.9,4.012,4.012,0,0,1,.739,2.6Zm3.262-10.658a.862.862,0,0,1-.623-.249.841.841,0,0,1-.257-.631.872.872,0,0,1,.88-.888.879.879,0,0,1,.635.253.887.887,0,0,1,0,1.258A.872.872,0,0,1,80.193,29.342ZM80.857,40H79.5V31.5h1.361Zm8.55-.39a4.423,4.423,0,0,1-2.324.589,3.848,3.848,0,0,1-2.934-1.183,4.287,4.287,0,0,1-1.116-3.067,4.712,4.712,0,0,1,1.2-3.374A4.211,4.211,0,0,1,87.448,31.3a4.472,4.472,0,0,1,1.976.415V33.11a3.461,3.461,0,0,0-2.025-.664,2.737,2.737,0,0,0-2.137.934,3.544,3.544,0,0,0-.834,2.453,3.374,3.374,0,0,0,.784,2.357,2.7,2.7,0,0,0,2.1.863,3.412,3.412,0,0,0,2.092-.739ZM97.55,40H96.188V38.672h-.033A2.85,2.85,0,0,1,93.541,40.2a2.794,2.794,0,0,1-1.988-.672,2.329,2.329,0,0,1-.718-1.785q0-2.382,2.806-2.772l2.548-.357q0-2.167-1.751-2.167a4.184,4.184,0,0,0-2.772,1.046V32.1a5.268,5.268,0,0,1,2.889-.8q3,0,3,3.171Zm-1.361-4.3-2.05.282a3.329,3.329,0,0,0-1.428.469,1.353,1.353,0,0,0-.481,1.191,1.3,1.3,0,0,0,.444,1.017,1.716,1.716,0,0,0,1.183.394,2.185,2.185,0,0,0,1.673-.71,2.536,2.536,0,0,0,.66-1.8Zm7.869,4.217a2.625,2.625,0,0,1-1.27.266q-2.233,0-2.233-2.49v-5.03H99.094V31.5h1.461V29.425l1.361-.44V31.5h2.142v1.162h-2.142v4.79a1.986,1.986,0,0,0,.291,1.22,1.159,1.159,0,0,0,.963.365,1.431,1.431,0,0,0,.888-.282Zm2.515-10.575a.862.862,0,0,1-.623-.249.841.841,0,0,1-.257-.631.872.872,0,0,1,.88-.888.879.879,0,0,1,.635.253.887.887,0,0,1,0,1.258A.872.872,0,0,1,106.573,29.342ZM107.237,40h-1.361V31.5h1.361Zm6.309.2a3.943,3.943,0,0,1-3.009-1.191,4.412,4.412,0,0,1-1.125-3.158,4.6,4.6,0,0,1,1.17-3.345,4.208,4.208,0,0,1,3.163-1.2,3.812,3.812,0,0,1,2.968,1.17,4.641,4.641,0,0,1,1.067,3.246,4.566,4.566,0,0,1-1.15,3.258A4.028,4.028,0,0,1,113.545,40.2Zm.1-7.753a2.589,2.589,0,0,0-2.075.892,3.665,3.665,0,0,0-.764,2.461,3.466,3.466,0,0,0,.772,2.382,2.624,2.624,0,0,0,2.067.872,2.489,2.489,0,0,0,2.03-.855,3.71,3.71,0,0,0,.71-2.432,3.774,3.774,0,0,0-.71-2.457A2.478,2.478,0,0,0,113.645,32.446ZM127.009,40h-1.361V35.152q0-2.706-1.976-2.706a2.143,2.143,0,0,0-1.689.768,2.846,2.846,0,0,0-.668,1.938V40h-1.361V31.5h1.361v1.411h.033a3.068,3.068,0,0,1,2.789-1.61,2.6,2.6,0,0,1,2.133.9,4.012,4.012,0,0,1,.739,2.6ZM137.8,42.706h-1.212a10.608,10.608,0,0,1-2.573-7.247,11.01,11.01,0,0,1,2.573-7.363h1.229a11.187,11.187,0,0,0-2.606,7.346A10.991,10.991,0,0,0,137.8,42.706ZM148.077,40h-1.66l-1.992-3.337a7.267,7.267,0,0,0-.531-.793,3.029,3.029,0,0,0-.527-.535,1.826,1.826,0,0,0-.581-.3,2.389,2.389,0,0,0-.7-.1h-1.146V40h-1.395V28.1H143.1a5.063,5.063,0,0,1,1.44.2,3.222,3.222,0,0,1,1.146.594,2.758,2.758,0,0,1,.76.992,3.289,3.289,0,0,1,.274,1.39,3.348,3.348,0,0,1-.187,1.141,2.981,2.981,0,0,1-.531.926,3.22,3.22,0,0,1-.83.693,4.238,4.238,0,0,1-1.092.444V34.5a2.511,2.511,0,0,1,.519.3,2.855,2.855,0,0,1,.419.4,5.333,5.333,0,0,1,.394.527q.2.295.436.685Zm-7.139-10.642v4.316h1.893a2.87,2.87,0,0,0,.967-.158,2.239,2.239,0,0,0,.768-.452,2.052,2.052,0,0,0,.506-.722,2.418,2.418,0,0,0,.183-.959,1.866,1.866,0,0,0-.618-1.49,2.657,2.657,0,0,0-1.789-.535Zm15.049,0h-3.437V40h-1.395V29.358h-3.428V28.1h8.259ZM165.168,39.5a6.982,6.982,0,0,1-3.287.7,5.3,5.3,0,0,1-4.067-1.635,6.034,6.034,0,0,1-1.527-4.292A6.324,6.324,0,0,1,158,29.657a5.832,5.832,0,0,1,4.358-1.76,6.987,6.987,0,0,1,2.806.49v1.486a5.69,5.69,0,0,0-2.822-.714,4.331,4.331,0,0,0-3.324,1.37,5.16,5.16,0,0,0-1.274,3.661,4.909,4.909,0,0,0,1.191,3.466,4.053,4.053,0,0,0,3.125,1.291,5.863,5.863,0,0,0,3.1-.8Zm2.274,3.2H166.23a10.991,10.991,0,0,0,2.59-7.263,11.187,11.187,0,0,0-2.606-7.346h1.229a10.966,10.966,0,0,1,2.59,7.363A10.567,10.567,0,0,1,167.442,42.706ZM183.28,40h-1.361V38.672h-.033a2.85,2.85,0,0,1-2.615,1.527,2.794,2.794,0,0,1-1.988-.672,2.329,2.329,0,0,1-.718-1.785q0-2.382,2.806-2.772l2.548-.357q0-2.167-1.751-2.167a4.184,4.184,0,0,0-2.772,1.046V32.1a5.268,5.268,0,0,1,2.889-.8q3,0,3,3.171Zm-1.361-4.3-2.05.282a3.329,3.329,0,0,0-1.428.469,1.353,1.353,0,0,0-.481,1.191,1.3,1.3,0,0,0,.444,1.017,1.716,1.716,0,0,0,1.183.394,2.185,2.185,0,0,0,1.673-.71,2.536,2.536,0,0,0,.66-1.8Zm5.321,3.071h-.033V43.91h-1.361V31.5h1.361v1.494h.033a3.219,3.219,0,0,1,2.938-1.693,3.113,3.113,0,0,1,2.565,1.141,4.727,4.727,0,0,1,.921,3.059,5.268,5.268,0,0,1-1.038,3.416,3.455,3.455,0,0,1-2.839,1.282A2.844,2.844,0,0,1,187.24,38.771Zm-.033-3.428V36.53a2.527,2.527,0,0,0,.685,1.789,2.443,2.443,0,0,0,3.677-.212,4.341,4.341,0,0,0,.7-2.631,3.427,3.427,0,0,0-.656-2.225,2.17,2.17,0,0,0-1.776-.805,2.412,2.412,0,0,0-1.909.826A3.033,3.033,0,0,0,187.207,35.343Zm9.33-6a.863.863,0,0,1-.623-.249.84.84,0,0,1-.257-.631.872.872,0,0,1,.88-.888.879.879,0,0,1,.635.253.887.887,0,0,1,0,1.258A.872.872,0,0,1,196.537,29.342ZM197.2,40h-1.361V31.5H197.2Zm2.241-.307V38.232a4.029,4.029,0,0,0,2.449.822q1.793,0,1.793-1.2a1.037,1.037,0,0,0-.154-.577,1.53,1.53,0,0,0-.415-.419,3.2,3.2,0,0,0-.614-.328q-.353-.145-.76-.3a9.782,9.782,0,0,1-.992-.452,3,3,0,0,1-.714-.515,1.915,1.915,0,0,1-.432-.652,2.305,2.305,0,0,1-.145-.855,2.031,2.031,0,0,1,.274-1.058,2.429,2.429,0,0,1,.73-.772,3.406,3.406,0,0,1,1.042-.469,4.621,4.621,0,0,1,1.208-.158,4.877,4.877,0,0,1,1.976.382v1.378a3.85,3.85,0,0,0-2.158-.614,2.523,2.523,0,0,0-.689.087,1.687,1.687,0,0,0-.527.245,1.131,1.131,0,0,0-.34.378,1,1,0,0,0-.12.486,1.165,1.165,0,0,0,.12.556,1.224,1.224,0,0,0,.353.4,2.7,2.7,0,0,0,.564.315q.332.141.755.307a10.513,10.513,0,0,1,1.013.444,3.473,3.473,0,0,1,.764.515,2.011,2.011,0,0,1,.486.66,2.128,2.128,0,0,1,.17.888,2.094,2.094,0,0,1-.278,1.1,2.383,2.383,0,0,1-.743.772,3.4,3.4,0,0,1-1.071.457,5.287,5.287,0,0,1-1.27.149A4.822,4.822,0,0,1,199.442,39.693Zm16.585-11.082a1.813,1.813,0,0,0-.9-.224q-1.428,0-1.428,1.8V31.5h1.992v1.162h-1.992V40h-1.353V32.662h-1.453V31.5h1.453V30.122a2.863,2.863,0,0,1,.772-2.113,2.606,2.606,0,0,1,1.926-.776,2.668,2.668,0,0,1,.988.149ZM220.7,40.2a3.943,3.943,0,0,1-3.009-1.191,4.412,4.412,0,0,1-1.125-3.158,4.6,4.6,0,0,1,1.17-3.345,4.208,4.208,0,0,1,3.163-1.2,3.812,3.812,0,0,1,2.968,1.17,4.641,4.641,0,0,1,1.067,3.246,4.567,4.567,0,0,1-1.15,3.258A4.028,4.028,0,0,1,220.7,40.2Zm.1-7.753a2.589,2.589,0,0,0-2.075.892,3.665,3.665,0,0,0-.764,2.461,3.466,3.466,0,0,0,.772,2.382,2.624,2.624,0,0,0,2.067.872,2.489,2.489,0,0,0,2.03-.855,3.71,3.71,0,0,0,.71-2.432,3.774,3.774,0,0,0-.71-2.457A2.478,2.478,0,0,0,220.8,32.446Zm10.741.432a1.665,1.665,0,0,0-1.029-.274,1.737,1.737,0,0,0-1.457.822,3.8,3.8,0,0,0-.585,2.241V40h-1.361V31.5h1.361v1.751h.033a2.968,2.968,0,0,1,.888-1.4,2.025,2.025,0,0,1,1.336-.5,2.222,2.222,0,0,1,.813.116Zm9.687,7.321a3.943,3.943,0,0,1-3.009-1.191,4.412,4.412,0,0,1-1.125-3.158,4.6,4.6,0,0,1,1.17-3.345,4.208,4.208,0,0,1,3.163-1.2,3.812,3.812,0,0,1,2.968,1.17,4.641,4.641,0,0,1,1.067,3.246,4.567,4.567,0,0,1-1.15,3.258A4.028,4.028,0,0,1,241.228,40.2Zm.1-7.753a2.589,2.589,0,0,0-2.075.892,3.665,3.665,0,0,0-.764,2.461,3.466,3.466,0,0,0,.772,2.382,2.624,2.624,0,0,0,2.067.872,2.489,2.489,0,0,0,2.03-.855,3.71,3.71,0,0,0,.71-2.432,3.774,3.774,0,0,0-.71-2.457A2.478,2.478,0,0,0,241.328,32.446ZM254.692,40h-1.361V35.152q0-2.706-1.976-2.706a2.143,2.143,0,0,0-1.689.768A2.846,2.846,0,0,0,249,35.152V40h-1.361V31.5H249v1.411h.033a3.068,3.068,0,0,1,2.789-1.61,2.6,2.6,0,0,1,2.133.9,4.012,4.012,0,0,1,.739,2.6Zm3.926,0h-1.361V27.416h1.361Zm9.521-8.5-3.91,9.861Q263.184,44,261.291,44a3.115,3.115,0,0,1-.888-.108v-1.22a2.523,2.523,0,0,0,.805.149,1.669,1.669,0,0,0,1.544-1.229l.681-1.61-3.32-8.483h1.511l2.3,6.541q.042.125.174.647h.05q.042-.2.166-.631l2.416-6.558ZM88.963,61.61a4.423,4.423,0,0,1-2.324.589A3.848,3.848,0,0,1,83.7,61.016a4.287,4.287,0,0,1-1.116-3.067,4.712,4.712,0,0,1,1.2-3.374A4.211,4.211,0,0,1,87,53.3a4.472,4.472,0,0,1,1.976.415V55.11a3.461,3.461,0,0,0-2.025-.664,2.737,2.737,0,0,0-2.137.934,3.544,3.544,0,0,0-.834,2.453,3.374,3.374,0,0,0,.784,2.357,2.7,2.7,0,0,0,2.1.863,3.412,3.412,0,0,0,2.092-.739Zm5.611.589a3.943,3.943,0,0,1-3.009-1.191A4.412,4.412,0,0,1,90.44,57.85a4.6,4.6,0,0,1,1.17-3.345,4.208,4.208,0,0,1,3.163-1.2,3.812,3.812,0,0,1,2.968,1.17,4.641,4.641,0,0,1,1.067,3.246,4.566,4.566,0,0,1-1.15,3.258A4.028,4.028,0,0,1,94.574,62.2Zm.1-7.753a2.589,2.589,0,0,0-2.075.892,3.665,3.665,0,0,0-.764,2.461,3.466,3.466,0,0,0,.772,2.382,2.624,2.624,0,0,0,2.067.872A2.489,2.489,0,0,0,96.7,60.2a3.71,3.71,0,0,0,.71-2.432,3.774,3.774,0,0,0-.71-2.457A2.478,2.478,0,0,0,94.674,54.446ZM113.052,62H111.69V57.119a3.682,3.682,0,0,0-.436-2.042,1.653,1.653,0,0,0-1.465-.631,1.814,1.814,0,0,0-1.482.8,3.049,3.049,0,0,0-.61,1.909V62h-1.361V56.953q0-2.507-1.934-2.507a1.792,1.792,0,0,0-1.478.751,3.105,3.105,0,0,0-.581,1.955V62h-1.361V53.5h1.361v1.345h.033a2.888,2.888,0,0,1,2.64-1.544,2.455,2.455,0,0,1,2.407,1.76,3.033,3.033,0,0,1,2.822-1.76q2.806,0,2.806,3.461Zm14.643,0h-1.361V57.119a3.682,3.682,0,0,0-.436-2.042,1.653,1.653,0,0,0-1.465-.631,1.814,1.814,0,0,0-1.482.8,3.049,3.049,0,0,0-.61,1.909V62h-1.361V56.953q0-2.507-1.934-2.507a1.792,1.792,0,0,0-1.478.751,3.105,3.105,0,0,0-.581,1.955V62h-1.361V53.5h1.361v1.345h.033a2.888,2.888,0,0,1,2.64-1.544,2.455,2.455,0,0,1,2.407,1.76,3.033,3.033,0,0,1,2.822-1.76q2.806,0,2.806,3.461Zm9.446,0h-1.361V60.655h-.033a2.8,2.8,0,0,1-2.623,1.544q-3.038,0-3.038-3.619V53.5h1.353v4.864q0,2.689,2.059,2.689a2.083,2.083,0,0,0,1.639-.735,2.811,2.811,0,0,0,.643-1.922V53.5h1.361Zm9.8,0h-1.361V57.152q0-2.706-1.976-2.706a2.143,2.143,0,0,0-1.689.768,2.846,2.846,0,0,0-.668,1.938V62h-1.361V53.5h1.361v1.411h.033a3.068,3.068,0,0,1,2.789-1.61,2.6,2.6,0,0,1,2.133.9,4.012,4.012,0,0,1,.739,2.6Zm3.262-10.658a.863.863,0,0,1-.623-.249.84.84,0,0,1-.257-.631.872.872,0,0,1,.88-.888.879.879,0,0,1,.635.253.887.887,0,0,1,0,1.258A.872.872,0,0,1,150.206,51.342ZM150.87,62h-1.361V53.5h1.361Zm8.55-.39a4.423,4.423,0,0,1-2.324.589,3.848,3.848,0,0,1-2.934-1.183,4.287,4.287,0,0,1-1.116-3.067,4.712,4.712,0,0,1,1.2-3.374,4.211,4.211,0,0,1,3.212-1.274,4.472,4.472,0,0,1,1.976.415V55.11a3.461,3.461,0,0,0-2.025-.664,2.737,2.737,0,0,0-2.137.934,3.544,3.544,0,0,0-.834,2.453,3.374,3.374,0,0,0,.784,2.357,2.7,2.7,0,0,0,2.1.863,3.412,3.412,0,0,0,2.092-.739Zm8.143.39H166.2V60.672h-.033a2.85,2.85,0,0,1-2.615,1.527,2.794,2.794,0,0,1-1.988-.672,2.329,2.329,0,0,1-.718-1.785q0-2.382,2.806-2.772l2.548-.357q0-2.167-1.751-2.167a4.184,4.184,0,0,0-2.772,1.046V54.1a5.268,5.268,0,0,1,2.889-.8q3,0,3,3.171ZM166.2,57.7l-2.05.282a3.329,3.329,0,0,0-1.428.469,1.353,1.353,0,0,0-.481,1.191,1.3,1.3,0,0,0,.444,1.017,1.716,1.716,0,0,0,1.183.394,2.185,2.185,0,0,0,1.673-.71,2.536,2.536,0,0,0,.66-1.8Zm7.869,4.217a2.625,2.625,0,0,1-1.27.266q-2.233,0-2.233-2.49v-5.03h-1.461V53.5h1.461V51.425l1.361-.44V53.5h2.142v1.162h-2.142v4.79a1.986,1.986,0,0,0,.291,1.22,1.159,1.159,0,0,0,.963.365,1.431,1.431,0,0,0,.888-.282Zm2.515-10.575a.863.863,0,0,1-.623-.249.84.84,0,0,1-.257-.631.872.872,0,0,1,.88-.888.879.879,0,0,1,.635.253.887.887,0,0,1,0,1.258A.872.872,0,0,1,176.586,51.342ZM177.25,62h-1.361V53.5h1.361Zm6.309.2a3.943,3.943,0,0,1-3.009-1.191,4.412,4.412,0,0,1-1.125-3.158,4.6,4.6,0,0,1,1.17-3.345,4.208,4.208,0,0,1,3.163-1.2,3.812,3.812,0,0,1,2.968,1.17,4.641,4.641,0,0,1,1.067,3.246,4.567,4.567,0,0,1-1.15,3.258A4.028,4.028,0,0,1,183.558,62.2Zm.1-7.753a2.589,2.589,0,0,0-2.075.892,3.665,3.665,0,0,0-.764,2.461,3.466,3.466,0,0,0,.772,2.382,2.624,2.624,0,0,0,2.067.872,2.489,2.489,0,0,0,2.03-.855,3.71,3.71,0,0,0,.71-2.432,3.774,3.774,0,0,0-.71-2.457A2.478,2.478,0,0,0,183.658,54.446ZM197.022,62h-1.361V57.152q0-2.706-1.976-2.706a2.143,2.143,0,0,0-1.689.768,2.846,2.846,0,0,0-.668,1.938V62h-1.361V53.5h1.361v1.411h.033a3.068,3.068,0,0,1,2.789-1.61,2.6,2.6,0,0,1,2.133.9,4.012,4.012,0,0,1,.739,2.6Z" transform="translate(48 378)"/>
  </g>
</svg>
