<svg xmlns="http://www.w3.org/2000/svg" width="53.025" height="16.477" viewBox="0 0 53.025 16.477">
  <path id="Path_44" data-name="Path 44" d="M116.177,13.684V18h-1.967V6.1h3.611A4.783,4.783,0,0,1,121,7.051a3.329,3.329,0,0,1,1.129,2.689,3.716,3.716,0,0,1-1.179,2.839,4.476,4.476,0,0,1-3.187,1.1Zm0-5.96v4.35h1.278a2.827,2.827,0,0,0,1.934-.589,2.1,2.1,0,0,0,.664-1.66q0-2.1-2.44-2.1Zm12.684,3.611a1.6,1.6,0,0,0-1-.274,1.719,1.719,0,0,0-1.428.772,3.452,3.452,0,0,0-.573,2.1V18H123.93V9.5h1.926v1.751h.033a2.961,2.961,0,0,1,.867-1.4,1.958,1.958,0,0,1,1.307-.5,1.623,1.623,0,0,1,.8.158Zm2.333-3.619a1.158,1.158,0,0,1-.809-.307,1.011,1.011,0,0,1-.336-.78,1.036,1.036,0,0,1,.336-.789,1.141,1.141,0,0,1,.809-.315,1.176,1.176,0,0,1,.83.315,1.031,1.031,0,0,1,.34.789,1.016,1.016,0,0,1-.34.768A1.168,1.168,0,0,1,131.193,7.715ZM132.147,18h-1.926V9.5h1.926Zm9.836-8.5L138.7,18h-2.083l-3.129-8.5h2.092l1.884,5.943a5.542,5.542,0,0,1,.266,1.146h.025a6.149,6.149,0,0,1,.232-1.112L139.958,9.5Zm7.545,8.5h-1.868V16.672h-.033a2.812,2.812,0,0,1-2.582,1.527,2.719,2.719,0,0,1-1.963-.681,2.381,2.381,0,0,1-.71-1.8q0-2.407,2.772-2.806l2.523-.357q0-1.818-1.727-1.818a4.1,4.1,0,0,0-2.739,1.046V10.1a5.974,5.974,0,0,1,3.1-.8q3.221,0,3.221,3.171Zm-1.859-4.175-1.785.249a2.829,2.829,0,0,0-1.249.4,1.176,1.176,0,0,0-.419,1.033,1.131,1.131,0,0,0,.386.884,1.5,1.5,0,0,0,1.033.344,1.907,1.907,0,0,0,1.457-.618,2.193,2.193,0,0,0,.577-1.556Zm10.293,3.785a4.749,4.749,0,0,1-2.416.589,4.091,4.091,0,0,1-3.055-1.183,4.19,4.19,0,0,1-1.162-3.067,4.612,4.612,0,0,1,1.249-3.374A4.466,4.466,0,0,1,155.921,9.3a4.877,4.877,0,0,1,2.05.407V11.5a3.105,3.105,0,0,0-1.893-.664,2.63,2.63,0,0,0-2,.826,3.02,3.02,0,0,0-.78,2.162,2.88,2.88,0,0,0,.735,2.083,2.608,2.608,0,0,0,1.971.764,3.081,3.081,0,0,0,1.959-.739Zm9.272-8.11L163.4,19.361Q162.2,22,160.046,22a4.021,4.021,0,0,1-1.013-.108v-1.6a2.693,2.693,0,0,0,.83.149,1.713,1.713,0,0,0,1.61-1.062l.573-1.395L158.668,9.5H160.8l2.025,6.176q.033.116.149.614h.042q.041-.191.149-.6L165.292,9.5Z" transform="translate(-114.209 -5.524)" fill="#fff"/>
</svg>
