<svg xmlns="http://www.w3.org/2000/svg" width="86.436" height="16.585" viewBox="0 0 86.436 16.585">
  <path id="Path_42" data-name="Path 42" d="M102.792,18.2a5.354,5.354,0,0,1-4.121-1.668,6.128,6.128,0,0,1-1.548-4.341A6.493,6.493,0,0,1,98.7,7.607a5.541,5.541,0,0,1,4.283-1.71,5.234,5.234,0,0,1,4.038,1.66,6.149,6.149,0,0,1,1.531,4.341,6.513,6.513,0,0,1-1.569,4.607A5.44,5.44,0,0,1,102.792,18.2Zm.091-10.567a3.312,3.312,0,0,0-2.66,1.22A4.827,4.827,0,0,0,99.2,12.065a4.874,4.874,0,0,0,1,3.2,3.212,3.212,0,0,0,2.606,1.212,3.365,3.365,0,0,0,2.7-1.154,4.814,4.814,0,0,0,.988-3.229,5.047,5.047,0,0,0-.959-3.3A3.241,3.241,0,0,0,102.883,7.632ZM118.09,18h-1.926V13.21q0-2.382-1.685-2.382a1.84,1.84,0,0,0-1.453.66,2.448,2.448,0,0,0-.573,1.664V18H110.52V9.5h1.934v1.411h.033a3.029,3.029,0,0,1,2.756-1.61,2.567,2.567,0,0,1,2.117.9,4.044,4.044,0,0,1,.73,2.6Zm4.283,0h-1.934V5.416h1.934Zm3.478-10.285a1.158,1.158,0,0,1-.809-.307,1.011,1.011,0,0,1-.336-.78,1.036,1.036,0,0,1,.336-.789,1.141,1.141,0,0,1,.809-.315,1.176,1.176,0,0,1,.83.315,1.03,1.03,0,0,1,.34.789,1.016,1.016,0,0,1-.34.768A1.168,1.168,0,0,1,125.851,7.715ZM126.806,18H124.88V9.5h1.926Zm10.085,0h-1.926V13.21q0-2.382-1.685-2.382a1.84,1.84,0,0,0-1.453.66,2.448,2.448,0,0,0-.573,1.664V18h-1.934V9.5h1.934v1.411h.033a3.029,3.029,0,0,1,2.756-1.61,2.567,2.567,0,0,1,2.117.9,4.044,4.044,0,0,1,.73,2.6Zm9.546-3.727h-5.794a2.449,2.449,0,0,0,.726,1.818,2.7,2.7,0,0,0,1.905.639,4.2,4.2,0,0,0,2.5-.813v1.552a5.708,5.708,0,0,1-3.071.73,3.8,3.8,0,0,1-2.943-1.158,4.632,4.632,0,0,1-1.067-3.258,4.529,4.529,0,0,1,1.175-3.233A3.842,3.842,0,0,1,142.785,9.3a3.35,3.35,0,0,1,2.7,1.121,4.653,4.653,0,0,1,.955,3.113Zm-1.859-1.361a2.481,2.481,0,0,0-.49-1.615,1.636,1.636,0,0,0-1.328-.577,1.869,1.869,0,0,0-1.407.606,2.768,2.768,0,0,0-.71,1.585Zm10.55.772V18h-1.967V6.1h3.611a4.783,4.783,0,0,1,3.179.955,3.329,3.329,0,0,1,1.129,2.689A3.716,3.716,0,0,1,159.9,12.58a4.476,4.476,0,0,1-3.187,1.1Zm0-5.96v4.35h1.278a2.827,2.827,0,0,0,1.934-.589A2.1,2.1,0,0,0,159,9.824q0-2.1-2.44-2.1ZM164.815,18h-1.934V5.416h1.934Zm9.031,0h-1.868V16.672h-.033a2.812,2.812,0,0,1-2.582,1.527,2.719,2.719,0,0,1-1.963-.681,2.381,2.381,0,0,1-.71-1.8q0-2.407,2.772-2.806l2.523-.357q0-1.818-1.727-1.818a4.1,4.1,0,0,0-2.739,1.046V10.1a5.974,5.974,0,0,1,3.1-.8q3.221,0,3.221,3.171Zm-1.859-4.175-1.785.249a2.829,2.829,0,0,0-1.249.4,1.176,1.176,0,0,0-.419,1.033,1.131,1.131,0,0,0,.386.884,1.5,1.5,0,0,0,1.033.344,1.907,1.907,0,0,0,1.457-.618,2.193,2.193,0,0,0,.577-1.556ZM183.558,9.5l-3.835,9.861Q178.528,22,176.37,22a4.021,4.021,0,0,1-1.013-.108v-1.6a2.693,2.693,0,0,0,.83.149,1.713,1.713,0,0,0,1.61-1.062l.573-1.395L174.992,9.5h2.133l2.025,6.176q.033.116.149.614h.042q.041-.191.149-.6L181.616,9.5Z" transform="translate(-97.122 -5.416)" fill="#fff"/>
</svg>
