<svg xmlns="http://www.w3.org/2000/svg" width="239.395" height="16.585" viewBox="0 0 239.395 16.585">
  <path id="Path_40" data-name="Path 40" d="M20.958,18V6.1H24.4q6.583,0,6.583,5.8a5.718,5.718,0,0,1-1.826,4.428A6.97,6.97,0,0,1,24.254,18ZM22.926,7.773v8.558H24.5a4.41,4.41,0,0,0,3.241-1.146A4.35,4.35,0,0,0,28.9,11.949q0-4.175-4.325-4.175Zm17.208,6.5H34.339a2.449,2.449,0,0,0,.726,1.818,2.7,2.7,0,0,0,1.905.639,4.2,4.2,0,0,0,2.5-.813v1.552a5.708,5.708,0,0,1-3.071.73,3.8,3.8,0,0,1-2.943-1.158,4.632,4.632,0,0,1-1.067-3.258,4.529,4.529,0,0,1,1.175-3.233A3.842,3.842,0,0,1,36.481,9.3a3.35,3.35,0,0,1,2.7,1.121,4.653,4.653,0,0,1,.955,3.113Zm-1.859-1.361a2.481,2.481,0,0,0-.49-1.615,1.636,1.636,0,0,0-1.328-.577,1.869,1.869,0,0,0-1.407.606,2.768,2.768,0,0,0-.71,1.585ZM49.289,9.5,46,18H43.918L40.789,9.5h2.092l1.884,5.943a5.541,5.541,0,0,1,.266,1.146h.025a6.149,6.149,0,0,1,.232-1.112L47.264,9.5Zm8.367,4.773H51.862a2.449,2.449,0,0,0,.726,1.818,2.7,2.7,0,0,0,1.905.639,4.2,4.2,0,0,0,2.5-.813v1.552a5.708,5.708,0,0,1-3.071.73,3.8,3.8,0,0,1-2.943-1.158,4.632,4.632,0,0,1-1.067-3.258,4.529,4.529,0,0,1,1.175-3.233A3.842,3.842,0,0,1,54,9.3a3.35,3.35,0,0,1,2.7,1.121,4.653,4.653,0,0,1,.955,3.113ZM55.8,12.912a2.481,2.481,0,0,0-.49-1.615,1.636,1.636,0,0,0-1.328-.577,1.869,1.869,0,0,0-1.407.606,2.768,2.768,0,0,0-.71,1.585ZM61.425,18H59.491V5.416h1.934Zm6.275.2a4.213,4.213,0,0,1-3.142-1.191,4.3,4.3,0,0,1-1.175-3.158A4.477,4.477,0,0,1,64.608,10.5a4.5,4.5,0,0,1,3.3-1.2,4.078,4.078,0,0,1,3.1,1.17,4.521,4.521,0,0,1,1.112,3.246,4.455,4.455,0,0,1-1.2,3.258A4.308,4.308,0,0,1,67.7,18.2Zm.091-7.363a2.2,2.2,0,0,0-1.785.789,3.3,3.3,0,0,0-.656,2.175,3.11,3.11,0,0,0,.664,2.1,2.23,2.23,0,0,0,1.776.768,2.116,2.116,0,0,0,1.747-.755,3.344,3.344,0,0,0,.61-2.15,3.394,3.394,0,0,0-.61-2.167A2.106,2.106,0,0,0,67.792,10.836Zm8.251,5.91h-.033V21.91H74.083V9.5h1.926v1.494h.033A3.156,3.156,0,0,1,78.931,9.3a3.043,3.043,0,0,1,2.523,1.137,4.77,4.77,0,0,1,.9,3.055,5.3,5.3,0,0,1-1.021,3.4,3.377,3.377,0,0,1-2.789,1.278A2.785,2.785,0,0,1,76.042,16.747Zm-.05-3.354v1.054a2.249,2.249,0,0,0,.594,1.577,2.095,2.095,0,0,0,3.188-.187,3.882,3.882,0,0,0,.61-2.328,3.06,3.06,0,0,0-.569-1.963,1.869,1.869,0,0,0-1.54-.71,2.075,2.075,0,0,0-1.656.73A2.706,2.706,0,0,0,75.993,13.393Zm15.531.88H85.729a2.449,2.449,0,0,0,.726,1.818,2.7,2.7,0,0,0,1.905.639,4.2,4.2,0,0,0,2.5-.813v1.552a5.708,5.708,0,0,1-3.071.73,3.8,3.8,0,0,1-2.943-1.158,4.632,4.632,0,0,1-1.067-3.258,4.529,4.529,0,0,1,1.175-3.233A3.842,3.842,0,0,1,87.871,9.3a3.35,3.35,0,0,1,2.7,1.121,4.653,4.653,0,0,1,.955,3.113Zm-1.859-1.361a2.481,2.481,0,0,0-.49-1.615,1.636,1.636,0,0,0-1.328-.577,1.869,1.869,0,0,0-1.407.606,2.768,2.768,0,0,0-.71,1.585ZM101.086,18H99.16V16.556h-.033a3.324,3.324,0,0,1-5.375.5,4.738,4.738,0,0,1-.942-3.109,5.162,5.162,0,0,1,1.042-3.378A3.409,3.409,0,0,1,96.628,9.3a2.659,2.659,0,0,1,2.5,1.378h.033V5.416h1.926Zm-1.9-3.885V13a2.167,2.167,0,0,0-.589-1.536,1.966,1.966,0,0,0-1.5-.631,2.023,2.023,0,0,0-1.7.805,3.588,3.588,0,0,0-.618,2.233,3.215,3.215,0,0,0,.594,2.046,1.93,1.93,0,0,0,1.6.751,2,2,0,0,0,1.6-.726A2.736,2.736,0,0,0,99.185,14.115ZM108.49,18V6.1h3.777A4.463,4.463,0,0,1,115,6.852a2.348,2.348,0,0,1,1.009,1.967,2.809,2.809,0,0,1-.573,1.76,3.09,3.09,0,0,1-1.585,1.063v.033a3.107,3.107,0,0,1,1.963.909,2.768,2.768,0,0,1,.735,2,3,3,0,0,1-1.2,2.474,4.765,4.765,0,0,1-3.038.946Zm1.967-10.318v3.387h1.278a2.455,2.455,0,0,0,1.615-.486,1.685,1.685,0,0,0,.585-1.374q0-1.527-2.042-1.527Zm0,4.972v3.769h1.685a2.562,2.562,0,0,0,1.706-.51,1.746,1.746,0,0,0,.6-1.407q0-1.851-2.565-1.851ZM125.905,9.5l-3.835,9.861q-1.2,2.64-3.354,2.64a4.021,4.021,0,0,1-1.013-.108v-1.6a2.693,2.693,0,0,0,.83.149,1.713,1.713,0,0,0,1.61-1.062l.573-1.395L117.339,9.5h2.133l2.025,6.176q.033.116.149.614h.042q.042-.191.149-.6L123.963,9.5Zm10.077,4.233a4.781,4.781,0,0,1-1.046,3.291,3.55,3.55,0,0,1-2.789,1.175,3.953,3.953,0,0,1-1.336-.191V16.149a2.117,2.117,0,0,0,1.22.324q1.976,0,1.976-3.055V6.1h1.976ZM144.922,18h-1.868V16.672h-.033A2.812,2.812,0,0,1,140.44,18.2a2.719,2.719,0,0,1-1.963-.681,2.381,2.381,0,0,1-.71-1.8q0-2.407,2.772-2.806l2.523-.357q0-1.818-1.727-1.818a4.1,4.1,0,0,0-2.739,1.046V10.1a5.974,5.974,0,0,1,3.1-.8q3.221,0,3.221,3.171Zm-1.859-4.175-1.785.249a2.829,2.829,0,0,0-1.249.4,1.176,1.176,0,0,0-.419,1.033,1.131,1.131,0,0,0,.386.884,1.5,1.5,0,0,0,1.033.344,1.907,1.907,0,0,0,1.457-.618,2.193,2.193,0,0,0,.577-1.556Zm10.293,3.785a4.749,4.749,0,0,1-2.416.589,4.091,4.091,0,0,1-3.055-1.183,4.19,4.19,0,0,1-1.162-3.067,4.612,4.612,0,0,1,1.249-3.374A4.466,4.466,0,0,1,151.314,9.3a4.877,4.877,0,0,1,2.05.407V11.5a3.105,3.105,0,0,0-1.893-.664,2.63,2.63,0,0,0-2,.826,3.02,3.02,0,0,0-.78,2.162,2.88,2.88,0,0,0,.735,2.083,2.608,2.608,0,0,0,1.971.764,3.081,3.081,0,0,0,1.959-.739Zm5.678.589a4.213,4.213,0,0,1-3.142-1.191,4.3,4.3,0,0,1-1.175-3.158,4.477,4.477,0,0,1,1.224-3.345,4.5,4.5,0,0,1,3.3-1.2,4.078,4.078,0,0,1,3.1,1.17,4.521,4.521,0,0,1,1.112,3.246,4.455,4.455,0,0,1-1.2,3.258A4.308,4.308,0,0,1,159.034,18.2Zm.091-7.363a2.2,2.2,0,0,0-1.785.789,3.3,3.3,0,0,0-.656,2.175,3.11,3.11,0,0,0,.664,2.1,2.23,2.23,0,0,0,1.776.768,2.116,2.116,0,0,0,1.747-.755,3.344,3.344,0,0,0,.61-2.15,3.394,3.394,0,0,0-.61-2.167A2.106,2.106,0,0,0,159.125,10.836Zm8.251,5.935h-.033V18h-1.926V5.416h1.926v5.578h.033A3.156,3.156,0,0,1,170.265,9.3a3.041,3.041,0,0,1,2.519,1.141,4.772,4.772,0,0,1,.909,3.059,5.327,5.327,0,0,1-1.021,3.416,3.373,3.373,0,0,1-2.789,1.282A2.738,2.738,0,0,1,167.376,16.771Zm-.05-3.378v1.054a2.249,2.249,0,0,0,.594,1.577,2.095,2.095,0,0,0,3.188-.187,3.882,3.882,0,0,0,.61-2.328,3.06,3.06,0,0,0-.569-1.963,1.869,1.869,0,0,0-1.54-.71,2.075,2.075,0,0,0-1.656.73A2.706,2.706,0,0,0,167.326,13.393Zm15.7-3.893-3.835,9.861q-1.2,2.64-3.354,2.64a4.021,4.021,0,0,1-1.013-.108v-1.6a2.693,2.693,0,0,0,.83.149,1.713,1.713,0,0,0,1.61-1.062l.573-1.395L174.457,9.5h2.133l2.025,6.176q.033.116.149.614h.042q.041-.191.149-.6L181.081,9.5ZM189.19,18V6.1h3.777a4.463,4.463,0,0,1,2.735.755,2.348,2.348,0,0,1,1.009,1.967,2.809,2.809,0,0,1-.573,1.76,3.09,3.09,0,0,1-1.585,1.063v.033a3.106,3.106,0,0,1,1.963.909,2.768,2.768,0,0,1,.735,2,3,3,0,0,1-1.2,2.474,4.765,4.765,0,0,1-3.038.946Zm1.967-10.318v3.387h1.278a2.455,2.455,0,0,0,1.615-.486,1.685,1.685,0,0,0,.585-1.374q0-1.527-2.042-1.527Zm0,4.972v3.769h1.685a2.562,2.562,0,0,0,1.706-.51,1.746,1.746,0,0,0,.6-1.407q0-1.851-2.565-1.851Zm13.016-1.32a1.6,1.6,0,0,0-1-.274,1.719,1.719,0,0,0-1.428.772,3.452,3.452,0,0,0-.573,2.1V18h-1.926V9.5h1.926v1.751h.033a2.961,2.961,0,0,1,.867-1.4,1.958,1.958,0,0,1,1.307-.5,1.623,1.623,0,0,1,.8.158Zm4.98,6.865a4.213,4.213,0,0,1-3.142-1.191,4.3,4.3,0,0,1-1.175-3.158,4.477,4.477,0,0,1,1.224-3.345,4.5,4.5,0,0,1,3.3-1.2,4.078,4.078,0,0,1,3.1,1.17,4.521,4.521,0,0,1,1.112,3.246,4.455,4.455,0,0,1-1.2,3.258A4.308,4.308,0,0,1,209.154,18.2Zm.091-7.363a2.2,2.2,0,0,0-1.785.789A3.3,3.3,0,0,0,206.8,13.8a3.11,3.11,0,0,0,.664,2.1,2.23,2.23,0,0,0,1.776.768,2.116,2.116,0,0,0,1.747-.755,3.344,3.344,0,0,0,.61-2.15,3.394,3.394,0,0,0-.61-2.167A2.106,2.106,0,0,0,209.245,10.836ZM221.862,18h-1.868V16.672h-.033A2.812,2.812,0,0,1,217.38,18.2a2.719,2.719,0,0,1-1.963-.681,2.381,2.381,0,0,1-.71-1.8q0-2.407,2.772-2.806L220,12.555q0-1.818-1.727-1.818a4.1,4.1,0,0,0-2.739,1.046V10.1a5.974,5.974,0,0,1,3.1-.8q3.221,0,3.221,3.171ZM220,13.825l-1.785.249a2.829,2.829,0,0,0-1.249.4,1.176,1.176,0,0,0-.419,1.033,1.131,1.131,0,0,0,.386.884,1.5,1.5,0,0,0,1.033.344,1.907,1.907,0,0,0,1.457-.618A2.193,2.193,0,0,0,220,14.563ZM231.939,18h-1.926V16.556h-.033a3.324,3.324,0,0,1-5.375.5,4.738,4.738,0,0,1-.942-3.109,5.162,5.162,0,0,1,1.042-3.378,3.409,3.409,0,0,1,2.777-1.27,2.659,2.659,0,0,1,2.5,1.378h.033V5.416h1.926Zm-1.9-3.885V13a2.167,2.167,0,0,0-.589-1.536,1.966,1.966,0,0,0-1.5-.631,2.023,2.023,0,0,0-1.7.805,3.588,3.588,0,0,0-.618,2.233,3.215,3.215,0,0,0,.594,2.046,1.93,1.93,0,0,0,1.6.751,2,2,0,0,0,1.6-.726A2.736,2.736,0,0,0,230.039,14.115ZM242.025,18H240.1V13.21q0-2.382-1.685-2.382a1.84,1.84,0,0,0-1.453.66,2.448,2.448,0,0,0-.573,1.664V18h-1.934V9.5h1.934v1.411h.033a3.029,3.029,0,0,1,2.756-1.61,2.567,2.567,0,0,1,2.117.9,4.044,4.044,0,0,1,.73,2.6Zm8.874,0h-1.868V16.672H249a2.812,2.812,0,0,1-2.582,1.527,2.719,2.719,0,0,1-1.963-.681,2.381,2.381,0,0,1-.71-1.8q0-2.407,2.772-2.806l2.523-.357q0-1.818-1.727-1.818a4.1,4.1,0,0,0-2.739,1.046V10.1a5.974,5.974,0,0,1,3.1-.8q3.221,0,3.221,3.171Zm-1.859-4.175-1.785.249a2.829,2.829,0,0,0-1.249.4,1.176,1.176,0,0,0-.419,1.033,1.131,1.131,0,0,0,.386.884,1.5,1.5,0,0,0,1.033.344,1.907,1.907,0,0,0,1.457-.618,2.193,2.193,0,0,0,.577-1.556ZM260.353,9.5l-2.831,4.3,2.8,4.2h-2.233l-1.494-2.631q-.141-.241-.332-.614h-.033q-.033.075-.349.614L254.36,18h-2.225l2.889-4.167L252.285,9.5h2.241L256,12.264q.166.307.324.631h.025l1.9-3.4Z" transform="translate(-20.958 -5.416)" fill="#fff"/>
</svg>
