<svg xmlns="http://www.w3.org/2000/svg" xmlns:xlink="http://www.w3.org/1999/xlink" width="375" height="812" viewBox="0 0 375 812">
  <defs>
    <clipPath id="clip-privacy">
      <rect width="375" height="812"/>
    </clipPath>
  </defs>
  <g id="privacy" clip-path="url(#clip-privacy)">
    <path id="Path_44" data-name="Path 44" d="M116.177,13.684V18h-1.967V6.1h3.611A4.783,4.783,0,0,1,121,7.051a3.329,3.329,0,0,1,1.129,2.689,3.716,3.716,0,0,1-1.179,2.839,4.476,4.476,0,0,1-3.187,1.1Zm0-5.96v4.35h1.278a2.827,2.827,0,0,0,1.934-.589,2.1,2.1,0,0,0,.664-1.66q0-2.1-2.44-2.1Zm12.684,3.611a1.6,1.6,0,0,0-1-.274,1.719,1.719,0,0,0-1.428.772,3.452,3.452,0,0,0-.573,2.1V18H123.93V9.5h1.926v1.751h.033a2.961,2.961,0,0,1,.867-1.4,1.958,1.958,0,0,1,1.307-.5,1.623,1.623,0,0,1,.8.158Zm2.333-3.619a1.158,1.158,0,0,1-.809-.307,1.011,1.011,0,0,1-.336-.78,1.036,1.036,0,0,1,.336-.789,1.141,1.141,0,0,1,.809-.315,1.176,1.176,0,0,1,.83.315,1.031,1.031,0,0,1,.34.789,1.016,1.016,0,0,1-.34.768A1.168,1.168,0,0,1,131.193,7.715ZM132.147,18h-1.926V9.5h1.926Zm9.836-8.5L138.7,18h-2.083l-3.129-8.5h2.092l1.884,5.943a5.542,5.542,0,0,1,.266,1.146h.025a6.149,6.149,0,0,1,.232-1.112L139.958,9.5Zm7.545,8.5h-1.868V16.672h-.033a2.812,2.812,0,0,1-2.582,1.527,2.719,2.719,0,0,1-1.963-.681,2.381,2.381,0,0,1-.71-1.8q0-2.407,2.772-2.806l2.523-.357q0-1.818-1.727-1.818a4.1,4.1,0,0,0-2.739,1.046V10.1a5.974,5.974,0,0,1,3.1-.8q3.221,0,3.221,3.171Zm-1.859-4.175-1.785.249a2.829,2.829,0,0,0-1.249.4,1.176,1.176,0,0,0-.419,1.033,1.131,1.131,0,0,0,.386.884,1.5,1.5,0,0,0,1.033.344,1.907,1.907,0,0,0,1.457-.618,2.193,2.193,0,0,0,.577-1.556Zm10.293,3.785a4.749,4.749,0,0,1-2.416.589,4.091,4.091,0,0,1-3.055-1.183,4.19,4.19,0,0,1-1.162-3.067,4.612,4.612,0,0,1,1.249-3.374A4.466,4.466,0,0,1,155.921,9.3a4.877,4.877,0,0,1,2.05.407V11.5a3.105,3.105,0,0,0-1.893-.664,2.63,2.63,0,0,0-2,.826,3.02,3.02,0,0,0-.78,2.162,2.88,2.88,0,0,0,.735,2.083,2.608,2.608,0,0,0,1.971.764,3.081,3.081,0,0,0,1.959-.739Zm9.272-8.11L163.4,19.361Q162.2,22,160.046,22a4.021,4.021,0,0,1-1.013-.108v-1.6a2.693,2.693,0,0,0,.83.149,1.713,1.713,0,0,0,1.61-1.062l.573-1.395L158.668,9.5H160.8l2.025,6.176q.033.116.149.614h.042q.041-.191.149-.6L165.292,9.5Z" transform="translate(48 349)" fill="#fff"/>
    <path id="Path_43" data-name="Path 43" d="M21.477,18H19.933l-1.262-3.337H13.625L12.438,18H10.885L15.451,6.1H16.9Zm-3.262-4.59L16.347,8.338a4.856,4.856,0,0,1-.183-.8h-.033a4.446,4.446,0,0,1-.191.8L14.09,13.41ZM24.407,18H23.046V5.416h1.361Zm4.117,0H27.163V5.416h1.361Zm10.965.2a3.943,3.943,0,0,1-3.009-1.191,4.412,4.412,0,0,1-1.125-3.158,4.6,4.6,0,0,1,1.17-3.345,4.208,4.208,0,0,1,3.163-1.2,3.812,3.812,0,0,1,2.968,1.17,4.641,4.641,0,0,1,1.067,3.246,4.567,4.567,0,0,1-1.15,3.258A4.028,4.028,0,0,1,39.49,18.2Zm.1-7.753a2.589,2.589,0,0,0-2.075.892,3.665,3.665,0,0,0-.764,2.461,3.466,3.466,0,0,0,.772,2.382,2.624,2.624,0,0,0,2.067.872,2.489,2.489,0,0,0,2.03-.855,3.71,3.71,0,0,0,.71-2.432,3.774,3.774,0,0,0-.71-2.457A2.478,2.478,0,0,0,39.59,10.446ZM50.1,6.611a1.813,1.813,0,0,0-.9-.224q-1.428,0-1.428,1.8V9.5h1.992v1.162H47.766V18H46.413V10.662H44.96V9.5h1.453V8.122a2.863,2.863,0,0,1,.772-2.113,2.606,2.606,0,0,1,1.926-.776,2.668,2.668,0,0,1,.988.149ZM62.641,9.5l-3.91,9.861Q57.685,22,55.793,22a3.115,3.115,0,0,1-.888-.108v-1.22a2.523,2.523,0,0,0,.805.149,1.669,1.669,0,0,0,1.544-1.229l.681-1.61L54.614,9.5h1.511l2.3,6.541q.042.125.174.647h.05q.042-.2.166-.631L61.23,9.5Zm5.014,8.7a3.943,3.943,0,0,1-3.009-1.191,4.412,4.412,0,0,1-1.125-3.158,4.6,4.6,0,0,1,1.17-3.345,4.208,4.208,0,0,1,3.163-1.2,3.812,3.812,0,0,1,2.968,1.17,4.641,4.641,0,0,1,1.067,3.246,4.566,4.566,0,0,1-1.15,3.258A4.028,4.028,0,0,1,67.655,18.2Zm.1-7.753a2.589,2.589,0,0,0-2.075.892,3.665,3.665,0,0,0-.764,2.461,3.466,3.466,0,0,0,.772,2.382,2.624,2.624,0,0,0,2.067.872,2.489,2.489,0,0,0,2.03-.855,3.71,3.71,0,0,0,.71-2.432,3.774,3.774,0,0,0-.71-2.457A2.478,2.478,0,0,0,67.754,10.446ZM80.936,18H79.574V16.655h-.033A2.8,2.8,0,0,1,76.918,18.2q-3.038,0-3.038-3.619V9.5h1.353v4.864q0,2.689,2.059,2.689a2.083,2.083,0,0,0,1.639-.735,2.811,2.811,0,0,0,.643-1.922V9.5h1.361Zm7.18-7.122a1.665,1.665,0,0,0-1.029-.274,1.737,1.737,0,0,0-1.457.822,3.8,3.8,0,0,0-.585,2.241V18H83.683V9.5h1.361v1.751h.033a2.968,2.968,0,0,1,.888-1.4,2.025,2.025,0,0,1,1.336-.5,2.222,2.222,0,0,1,.813.116ZM101.505,18h-1.361V16.556h-.033A3.143,3.143,0,0,1,97.189,18.2a3.175,3.175,0,0,1-2.561-1.141,4.682,4.682,0,0,1-.959-3.109,5.094,5.094,0,0,1,1.063-3.378A3.5,3.5,0,0,1,97.562,9.3a2.725,2.725,0,0,1,2.548,1.378h.033V5.416h1.361Zm-1.361-3.843V12.9a2.432,2.432,0,0,0-.681-1.743,2.283,2.283,0,0,0-1.727-.714,2.351,2.351,0,0,0-1.959.913,4,4,0,0,0-.714,2.523,3.6,3.6,0,0,0,.685,2.32,2.238,2.238,0,0,0,1.839.851,2.325,2.325,0,0,0,1.847-.822A3.062,3.062,0,0,0,100.144,14.157ZM110.345,18h-1.361V16.672h-.033a2.85,2.85,0,0,1-2.615,1.527,2.794,2.794,0,0,1-1.988-.672,2.329,2.329,0,0,1-.718-1.785q0-2.382,2.806-2.772l2.548-.357q0-2.167-1.751-2.167a4.184,4.184,0,0,0-2.772,1.046V10.1a5.268,5.268,0,0,1,2.889-.8q3,0,3,3.171Zm-1.361-4.3-2.05.282a3.329,3.329,0,0,0-1.428.469,1.353,1.353,0,0,0-.481,1.191,1.3,1.3,0,0,0,.444,1.017,1.716,1.716,0,0,0,1.183.394,2.185,2.185,0,0,0,1.673-.71,2.536,2.536,0,0,0,.66-1.8Zm7.869,4.217a2.625,2.625,0,0,1-1.27.266q-2.233,0-2.233-2.49v-5.03h-1.461V9.5h1.461V7.425l1.361-.44V9.5h2.142v1.162h-2.142v4.79a1.986,1.986,0,0,0,.291,1.22,1.159,1.159,0,0,0,.963.365,1.431,1.431,0,0,0,.888-.282Zm7.9.083h-1.361V16.672h-.033a2.85,2.85,0,0,1-2.615,1.527,2.794,2.794,0,0,1-1.988-.672,2.329,2.329,0,0,1-.718-1.785q0-2.382,2.806-2.772l2.548-.357q0-2.167-1.751-2.167a4.184,4.184,0,0,0-2.772,1.046V10.1a5.268,5.268,0,0,1,2.889-.8q3,0,3,3.171Zm-1.361-4.3-2.05.282a3.329,3.329,0,0,0-1.428.469,1.353,1.353,0,0,0-.481,1.191,1.3,1.3,0,0,0,.444,1.017,1.716,1.716,0,0,0,1.183.394,2.185,2.185,0,0,0,1.673-.71,2.536,2.536,0,0,0,.66-1.8Zm9.28-6.358a.863.863,0,0,1-.623-.249.84.84,0,0,1-.257-.631.872.872,0,0,1,.88-.888.879.879,0,0,1,.635.253.887.887,0,0,1,0,1.258A.872.872,0,0,1,132.675,7.342ZM133.339,18h-1.361V9.5h1.361Zm2.241-.307V16.232a4.029,4.029,0,0,0,2.449.822q1.793,0,1.793-1.2a1.037,1.037,0,0,0-.154-.577,1.53,1.53,0,0,0-.415-.419,3.2,3.2,0,0,0-.614-.328q-.353-.145-.76-.3a9.782,9.782,0,0,1-.992-.452,3,3,0,0,1-.714-.515,1.915,1.915,0,0,1-.432-.652,2.305,2.305,0,0,1-.145-.855,2.031,2.031,0,0,1,.274-1.058,2.429,2.429,0,0,1,.73-.772,3.406,3.406,0,0,1,1.042-.469A4.621,4.621,0,0,1,138.85,9.3a4.877,4.877,0,0,1,1.976.382v1.378a3.85,3.85,0,0,0-2.158-.614,2.523,2.523,0,0,0-.689.087,1.687,1.687,0,0,0-.527.245,1.131,1.131,0,0,0-.34.378,1,1,0,0,0-.12.486,1.165,1.165,0,0,0,.12.556,1.224,1.224,0,0,0,.353.4,2.7,2.7,0,0,0,.564.315q.332.141.755.307a10.513,10.513,0,0,1,1.013.444,3.473,3.473,0,0,1,.764.515,2.011,2.011,0,0,1,.486.66,2.128,2.128,0,0,1,.17.888,2.094,2.094,0,0,1-.278,1.1,2.383,2.383,0,0,1-.743.772,3.4,3.4,0,0,1-1.071.457,5.287,5.287,0,0,1-1.27.149A4.822,4.822,0,0,1,135.58,17.693ZM155.02,18h-1.909l-3.752-4.084h-.033V18h-1.361V5.416h1.361v7.977h.033L152.928,9.5h1.785l-3.943,4.1Zm8.226-3.91h-6a3.179,3.179,0,0,0,.764,2.191,2.633,2.633,0,0,0,2.009.772,4.176,4.176,0,0,0,2.64-.946v1.278a4.933,4.933,0,0,1-2.963.813,3.593,3.593,0,0,1-2.831-1.158,4.74,4.74,0,0,1-1.029-3.258,4.648,4.648,0,0,1,1.125-3.233A3.606,3.606,0,0,1,159.752,9.3a3.2,3.2,0,0,1,2.582,1.079,4.5,4.5,0,0,1,.913,3Zm-1.395-1.154a2.77,2.77,0,0,0-.569-1.834,1.937,1.937,0,0,0-1.556-.656,2.2,2.2,0,0,0-1.635.689,3.127,3.127,0,0,0-.83,1.8Zm4.848,3.835h-.033V21.91H165.3V9.5h1.361v1.494h.033A3.219,3.219,0,0,1,169.638,9.3a3.113,3.113,0,0,1,2.565,1.141,4.727,4.727,0,0,1,.921,3.059,5.268,5.268,0,0,1-1.038,3.416,3.455,3.455,0,0,1-2.839,1.282A2.844,2.844,0,0,1,166.7,16.771Zm-.033-3.428V14.53a2.527,2.527,0,0,0,.685,1.789,2.443,2.443,0,0,0,3.677-.212,4.341,4.341,0,0,0,.7-2.631,3.427,3.427,0,0,0-.656-2.225,2.17,2.17,0,0,0-1.776-.805,2.412,2.412,0,0,0-1.909.826A3.033,3.033,0,0,0,166.666,13.343Zm12.576,4.574a2.625,2.625,0,0,1-1.27.266q-2.233,0-2.233-2.49v-5.03h-1.461V9.5h1.461V7.425l1.361-.44V9.5h2.142v1.162H177.1v4.79a1.986,1.986,0,0,0,.291,1.22,1.159,1.159,0,0,0,.963.365,1.431,1.431,0,0,0,.888-.282Zm5.96-.224V16.232a4.029,4.029,0,0,0,2.449.822q1.793,0,1.793-1.2a1.037,1.037,0,0,0-.154-.577,1.53,1.53,0,0,0-.415-.419,3.2,3.2,0,0,0-.614-.328q-.353-.145-.76-.3a9.782,9.782,0,0,1-.992-.452,3,3,0,0,1-.714-.515,1.915,1.915,0,0,1-.432-.652,2.305,2.305,0,0,1-.145-.855,2.031,2.031,0,0,1,.274-1.058,2.429,2.429,0,0,1,.73-.772,3.406,3.406,0,0,1,1.042-.469,4.621,4.621,0,0,1,1.208-.158,4.877,4.877,0,0,1,1.976.382v1.378a3.85,3.85,0,0,0-2.158-.614,2.523,2.523,0,0,0-.689.087,1.687,1.687,0,0,0-.527.245,1.131,1.131,0,0,0-.34.378,1,1,0,0,0-.12.486,1.165,1.165,0,0,0,.12.556,1.224,1.224,0,0,0,.353.4,2.7,2.7,0,0,0,.564.315q.332.141.755.307a10.513,10.513,0,0,1,1.013.444,3.473,3.473,0,0,1,.764.515,2.011,2.011,0,0,1,.486.66,2.128,2.128,0,0,1,.17.888,2.094,2.094,0,0,1-.278,1.1,2.383,2.383,0,0,1-.743.772,3.4,3.4,0,0,1-1.071.457,5.287,5.287,0,0,1-1.27.149A4.822,4.822,0,0,1,185.2,17.693Zm14.56-3.6h-6a3.179,3.179,0,0,0,.764,2.191,2.633,2.633,0,0,0,2.009.772,4.176,4.176,0,0,0,2.64-.946v1.278a4.933,4.933,0,0,1-2.963.813,3.593,3.593,0,0,1-2.831-1.158,4.74,4.74,0,0,1-1.029-3.258,4.648,4.648,0,0,1,1.125-3.233A3.606,3.606,0,0,1,196.267,9.3a3.2,3.2,0,0,1,2.582,1.079,4.5,4.5,0,0,1,.913,3Zm-1.395-1.154A2.77,2.77,0,0,0,197.8,11.1a1.937,1.937,0,0,0-1.556-.656,2.2,2.2,0,0,0-1.635.689,3.127,3.127,0,0,0-.83,1.8Zm9.247,4.673a4.423,4.423,0,0,1-2.324.589,3.848,3.848,0,0,1-2.934-1.183,4.287,4.287,0,0,1-1.116-3.067,4.712,4.712,0,0,1,1.2-3.374A4.211,4.211,0,0,1,205.655,9.3a4.472,4.472,0,0,1,1.976.415V11.11a3.461,3.461,0,0,0-2.025-.664,2.737,2.737,0,0,0-2.137.934,3.544,3.544,0,0,0-.834,2.453,3.374,3.374,0,0,0,.784,2.357,2.7,2.7,0,0,0,2.1.863,3.412,3.412,0,0,0,2.092-.739Zm8.932.39h-1.361V16.655h-.033a2.8,2.8,0,0,1-2.623,1.544q-3.038,0-3.038-3.619V9.5h1.353v4.864q0,2.689,2.059,2.689a2.083,2.083,0,0,0,1.639-.735,2.811,2.811,0,0,0,.643-1.922V9.5h1.361Zm7.18-7.122A1.665,1.665,0,0,0,222.7,10.6a1.737,1.737,0,0,0-1.457.822,3.8,3.8,0,0,0-.585,2.241V18h-1.361V9.5h1.361v1.751h.033a2.968,2.968,0,0,1,.888-1.4,2.025,2.025,0,0,1,1.336-.5,2.222,2.222,0,0,1,.813.116Zm8.309,3.212h-6a3.179,3.179,0,0,0,.764,2.191,2.633,2.633,0,0,0,2.009.772,4.176,4.176,0,0,0,2.64-.946v1.278a4.933,4.933,0,0,1-2.963.813,3.593,3.593,0,0,1-2.831-1.158,4.74,4.74,0,0,1-1.029-3.258,4.648,4.648,0,0,1,1.125-3.233A3.606,3.606,0,0,1,228.54,9.3a3.2,3.2,0,0,1,2.582,1.079,4.5,4.5,0,0,1,.913,3Zm-1.395-1.154a2.77,2.77,0,0,0-.569-1.834,1.937,1.937,0,0,0-1.556-.656,2.2,2.2,0,0,0-1.635.689,3.127,3.127,0,0,0-.83,1.8ZM235.455,18h-1.361V5.416h1.361Zm9.521-8.5-3.91,9.861Q240.02,22,238.128,22a3.115,3.115,0,0,1-.888-.108v-1.22a2.523,2.523,0,0,0,.805.149,1.668,1.668,0,0,0,1.544-1.229l.681-1.61L236.949,9.5h1.511l2.3,6.541q.041.125.174.647h.05q.041-.2.166-.631L243.565,9.5Zm9.67,8.7a3.943,3.943,0,0,1-3.009-1.191,4.412,4.412,0,0,1-1.125-3.158,4.6,4.6,0,0,1,1.17-3.345,4.208,4.208,0,0,1,3.163-1.2,3.812,3.812,0,0,1,2.968,1.17,4.641,4.641,0,0,1,1.067,3.246,4.566,4.566,0,0,1-1.15,3.258A4.028,4.028,0,0,1,254.646,18.2Zm.1-7.753a2.589,2.589,0,0,0-2.075.892,3.665,3.665,0,0,0-.764,2.461,3.466,3.466,0,0,0,.772,2.382,2.624,2.624,0,0,0,2.067.872,2.489,2.489,0,0,0,2.03-.855,3.71,3.71,0,0,0,.71-2.432,3.774,3.774,0,0,0-.71-2.457A2.478,2.478,0,0,0,254.746,10.446ZM268.11,18h-1.361V13.152q0-2.706-1.976-2.706a2.143,2.143,0,0,0-1.689.768,2.846,2.846,0,0,0-.668,1.938V18h-1.361V9.5h1.361v1.411h.033a3.068,3.068,0,0,1,2.789-1.61,2.6,2.6,0,0,1,2.133.9,4.012,4.012,0,0,1,.739,2.6ZM122.838,40h-1.361V38.556h-.033a3.143,3.143,0,0,1-2.922,1.644,3.175,3.175,0,0,1-2.561-1.141A4.682,4.682,0,0,1,115,35.949a5.094,5.094,0,0,1,1.063-3.378A3.5,3.5,0,0,1,118.9,31.3a2.725,2.725,0,0,1,2.548,1.378h.033V27.416h1.361Zm-1.361-3.843V34.9a2.432,2.432,0,0,0-.681-1.743,2.283,2.283,0,0,0-1.727-.714,2.351,2.351,0,0,0-1.959.913,4,4,0,0,0-.714,2.523,3.6,3.6,0,0,0,.685,2.32,2.238,2.238,0,0,0,1.839.851,2.325,2.325,0,0,0,1.847-.822A3.062,3.062,0,0,0,121.477,36.157Zm10.949-.066h-6a3.179,3.179,0,0,0,.764,2.191,2.633,2.633,0,0,0,2.009.772,4.176,4.176,0,0,0,2.64-.946v1.278a4.933,4.933,0,0,1-2.963.813,3.593,3.593,0,0,1-2.831-1.158,4.74,4.74,0,0,1-1.029-3.258,4.648,4.648,0,0,1,1.125-3.233,3.606,3.606,0,0,1,2.793-1.249,3.2,3.2,0,0,1,2.582,1.079,4.5,4.5,0,0,1,.913,3Zm-1.395-1.154a2.77,2.77,0,0,0-.569-1.834,1.937,1.937,0,0,0-1.556-.656,2.2,2.2,0,0,0-1.635.689,3.127,3.127,0,0,0-.83,1.8ZM141.166,31.5,137.78,40h-1.336l-3.221-8.5h1.494l2.158,6.176a5.544,5.544,0,0,1,.3,1.187h.033a5.613,5.613,0,0,1,.266-1.154L139.73,31.5Zm2.158-2.158a.863.863,0,0,1-.623-.249.84.84,0,0,1-.257-.631.872.872,0,0,1,.88-.888.879.879,0,0,1,.635.253.887.887,0,0,1,0,1.258A.872.872,0,0,1,143.324,29.342ZM143.989,40h-1.361V31.5h1.361Zm8.55-.39a4.423,4.423,0,0,1-2.324.589,3.848,3.848,0,0,1-2.934-1.183,4.287,4.287,0,0,1-1.116-3.067,4.712,4.712,0,0,1,1.2-3.374,4.211,4.211,0,0,1,3.212-1.274,4.472,4.472,0,0,1,1.976.415V33.11a3.461,3.461,0,0,0-2.025-.664,2.737,2.737,0,0,0-2.137.934,3.544,3.544,0,0,0-.834,2.453,3.374,3.374,0,0,0,.784,2.357,2.7,2.7,0,0,0,2.1.863,3.412,3.412,0,0,0,2.092-.739Zm8.89-3.52h-6a3.179,3.179,0,0,0,.764,2.191,2.633,2.633,0,0,0,2.009.772,4.176,4.176,0,0,0,2.64-.946v1.278a4.933,4.933,0,0,1-2.963.813,3.593,3.593,0,0,1-2.831-1.158,4.74,4.74,0,0,1-1.029-3.258,4.648,4.648,0,0,1,1.125-3.233,3.606,3.606,0,0,1,2.793-1.249,3.2,3.2,0,0,1,2.582,1.079,4.5,4.5,0,0,1,.913,3Zm-1.395-1.154a2.77,2.77,0,0,0-.569-1.834,1.937,1.937,0,0,0-1.556-.656,2.2,2.2,0,0,0-1.635.689,3.127,3.127,0,0,0-.83,1.8Zm3.926,5.246a.881.881,0,0,1-.652-.274.9.9,0,0,1-.27-.656.915.915,0,0,1,.27-.66.875.875,0,0,1,.652-.278.9.9,0,0,1,.664.278.908.908,0,0,1,.274.66.9.9,0,0,1-.274.656A.9.9,0,0,1,163.96,40.183Z" transform="translate(48 378)" fill="#fff"/>
  </g>
</svg>
