<svg xmlns="http://www.w3.org/2000/svg" xmlns:xlink="http://www.w3.org/1999/xlink" width="305" height="49" viewBox="0 0 305 49">
  <defs>
    <linearGradient id="linear-gradient" x1="0.5" x2="0.5" y2="1" gradientUnits="objectBoundingBox">
      <stop offset="0" stop-color="#0210d8"/>
      <stop offset="1" stop-color="#072577"/>
    </linearGradient>
    <clipPath id="clip-quickplay">
      <rect width="305" height="49"/>
    </clipPath>
  </defs>
  <g id="quickplay" clip-path="url(#clip-quickplay)">
    <rect width="305" height="49" fill="#fff"/>
    <rect id="Rectangle_134" data-name="Rectangle 134" width="303" height="49" rx="5" transform="translate(1)" fill="url(#linear-gradient)"/>
    <path id="Path_47" data-name="Path 47" d="M71.526,16.176a5.259,5.259,0,0,1-2.058-.388A4.516,4.516,0,0,1,67.893,14.7a4.913,4.913,0,0,1-1.011-1.674,6.188,6.188,0,0,1-.359-2.153,6.82,6.82,0,0,1,.363-2.285,5,5,0,0,1,1.033-1.75,4.544,4.544,0,0,1,1.63-1.121,5.583,5.583,0,0,1,2.146-.4,5.055,5.055,0,0,1,2.007.388A4.474,4.474,0,0,1,75.254,6.8a4.928,4.928,0,0,1,1,1.674,6.223,6.223,0,0,1,.355,2.146,6.638,6.638,0,0,1-.52,2.721,4.678,4.678,0,0,1-1.465,1.879l3.047,2.2H75.019l-1.875-1.458a6.423,6.423,0,0,1-.776.161A5.849,5.849,0,0,1,71.526,16.176Zm.081-9.324a3.039,3.039,0,0,0-1.315.282,3,3,0,0,0-1.029.8,3.728,3.728,0,0,0-.67,1.234,5.052,5.052,0,0,0-.238,1.6,5.174,5.174,0,0,0,.231,1.589,3.693,3.693,0,0,0,.648,1.227,2.9,2.9,0,0,0,2.3,1.073,3.338,3.338,0,0,0,1.355-.264,2.806,2.806,0,0,0,1.022-.758,3.446,3.446,0,0,0,.648-1.212,5.411,5.411,0,0,0,.227-1.633,5.814,5.814,0,0,0-.22-1.67,3.525,3.525,0,0,0-.63-1.234,2.7,2.7,0,0,0-1-.765A3.222,3.222,0,0,0,71.606,6.852ZM84.885,16h-1.7V14.813h-.029a2.445,2.445,0,0,1-2.3,1.362q-2.659,0-2.659-3.193V8.5h1.7v4.307q0,2.021,1.56,2.021a1.576,1.576,0,0,0,1.241-.557,2.133,2.133,0,0,0,.487-1.458V8.5h1.7Zm3.069-9.075a1.022,1.022,0,0,1-.714-.271.892.892,0,0,1-.3-.688.915.915,0,0,1,.3-.7,1.007,1.007,0,0,1,.714-.278,1.038,1.038,0,0,1,.732.278.909.909,0,0,1,.3.7.9.9,0,0,1-.3.677A1.03,1.03,0,0,1,87.954,6.925ZM88.8,16H87.1V8.5h1.7Zm7.588-.344a4.19,4.19,0,0,1-2.131.52,3.609,3.609,0,0,1-2.7-1.044,3.7,3.7,0,0,1-1.025-2.706,4.069,4.069,0,0,1,1.1-2.977,3.941,3.941,0,0,1,2.948-1.124,4.3,4.3,0,0,1,1.809.359v1.582a2.74,2.74,0,0,0-1.67-.586,2.321,2.321,0,0,0-1.765.729,2.665,2.665,0,0,0-.688,1.908,2.541,2.541,0,0,0,.648,1.838,2.3,2.3,0,0,0,1.74.674,2.718,2.718,0,0,0,1.729-.652Zm8.489.344h-2.153L99.8,12.4h-.029V16H98.069V4.9h1.707v7.039H99.8L102.558,8.5H104.6l-3.1,3.618Zm7.119-3.809V16h-1.736V5.5h3.186a4.22,4.22,0,0,1,2.805.842,2.937,2.937,0,0,1,1,2.373,3.278,3.278,0,0,1-1.04,2.5,3.949,3.949,0,0,1-2.812.974Zm0-5.259v3.838h1.128a2.494,2.494,0,0,0,1.707-.52,1.856,1.856,0,0,0,.586-1.465q0-1.853-2.153-1.853ZM120.539,16h-1.707V4.9h1.707Zm7.969,0H126.86V14.828h-.029a2.481,2.481,0,0,1-2.278,1.348,2.4,2.4,0,0,1-1.732-.6,2.1,2.1,0,0,1-.626-1.589q0-2.124,2.446-2.476l2.227-.315q0-1.6-1.523-1.6a3.619,3.619,0,0,0-2.417.923V9.027a5.271,5.271,0,0,1,2.739-.7q2.842,0,2.842,2.8Zm-1.641-3.684-1.575.22a2.5,2.5,0,0,0-1.1.355,1.038,1.038,0,0,0-.37.912,1,1,0,0,0,.341.78,1.319,1.319,0,0,0,.912.3,1.683,1.683,0,0,0,1.285-.546,1.935,1.935,0,0,0,.509-1.373ZM137.077,8.5l-3.384,8.7q-1.055,2.329-2.959,2.329a3.548,3.548,0,0,1-.894-.1V18.021a2.376,2.376,0,0,0,.732.132,1.511,1.511,0,0,0,1.421-.937l.505-1.23L129.519,8.5H131.4l1.787,5.449q.029.1.132.542h.037q.037-.168.132-.527L135.364,8.5Z" transform="translate(51 14)" fill="#fff"/>
  </g>
</svg>
