<svg xmlns="http://www.w3.org/2000/svg" xmlns:xlink="http://www.w3.org/1999/xlink" width="76" height="76" viewBox="0 0 76 76">
  <defs>
    <clipPath id="clip-red1">
      <rect width="76" height="76"/>
    </clipPath>
  </defs>
  <g id="red1" clip-path="url(#clip-red1)">
    <g id="Rectangle_14" data-name="Rectangle 14" fill="#fff" stroke="#e20f0f" stroke-width="3">
      <rect width="76" height="76" rx="38" stroke="none"/>
      <rect x="1.5" y="1.5" width="73" height="73" rx="36.5" fill="none"/>
    </g>
    <g id="local_fire_department-24px" transform="translate(23 24)">
      <g id="Group_1" data-name="Group 1">
        <rect id="Rectangle_19" data-name="Rectangle 19" width="29" height="29" fill="none"/>
      </g>
      <g id="Group_2" data-name="Group 2" transform="translate(4.778 1.787)">
        <path id="Path_1" data-name="Path 1" d="M22.492,14.462c-1.875-4.874-8.553-5.137-6.94-12.22a.6.6,0,0,0-.9-.657C10.319,4.141,7.2,9.265,9.817,15.979a.594.594,0,0,1-.9.7,5.948,5.948,0,0,1-2.2-5.674A.6.6,0,0,0,5.637,10.6,11.232,11.232,0,0,0,4,16.875a9.62,9.62,0,0,0,8.135,9.007,10.247,10.247,0,0,0,8.3-2.234A8.259,8.259,0,0,0,22.492,14.462ZM11.406,20.47a3.691,3.691,0,0,0,2.843-2.759c.394-1.708-1.147-3.381-.108-6.08.394,2.234,3.906,3.631,3.906,6.068C18.143,20.721,14.87,23.313,11.406,20.47Z" transform="translate(-4 -1.496)" fill="#e20f0f"/>
      </g>
    </g>
    <rect id="Rectangle_20" data-name="Rectangle 20" width="8" height="12" transform="translate(35 35)" fill="#e20f0f"/>
  </g>
</svg>
